<svg width="150" height="150" viewBox="0 0 337 297" fill="none" xmlns="http://www.w3.org/2000/svg">
<path d="M253.514 95.5514H234.328C226.506 95.5514 220.107 101.184 220.107 108.081V191.387C220.107 198.283 226.506 203.923 234.328 203.923H253.514C261.333 203.923 267.728 198.284 267.728 191.387V108.081C267.728 101.185 261.332 95.5514 253.514 95.5514ZM243.923 157.878C241.718 157.878 239.937 156.305 239.937 154.372C239.937 152.432 241.718 150.859 243.923 150.859C246.116 150.859 247.897 152.432 247.897 154.372C247.898 156.306 246.116 157.878 243.923 157.878ZM242.215 145.599C242.215 144.768 242.976 144.098 243.923 144.098C244.866 144.098 245.626 144.768 245.626 145.599C245.626 146.43 244.866 147.101 243.923 147.101C242.976 147.102 242.215 146.431 242.215 145.599ZM257.957 121.861H229.881C229.099 121.861 228.458 121.294 228.458 120.605C228.458 119.908 229.099 119.354 229.881 119.354H257.957C258.739 119.354 259.375 119.908 259.375 120.605C259.376 121.294 258.74 121.861 257.957 121.861ZM257.957 115.597H229.881C229.099 115.597 228.458 115.036 228.458 114.34C228.458 113.65 229.099 113.089 229.881 113.089H257.957C258.739 113.089 259.375 113.65 259.375 114.34C259.376 115.036 258.74 115.597 257.957 115.597ZM257.957 109.332H229.881C229.099 109.332 228.458 108.771 228.458 108.082C228.458 107.386 229.099 106.825 229.881 106.825H257.957C258.739 106.825 259.375 107.386 259.375 108.082C259.376 108.771 258.74 109.332 257.957 109.332ZM198.455 93.0768H87.4023C77.3974 93.0899 69.2946 100.231 69.2723 109.042V167.501C69.2946 176.319 77.3974 183.453 87.4023 183.466H128.752V191.968C128.752 192.883 128.35 194.333 127.849 195.191L114.213 199.612C112.993 200.115 110.795 200.521 109.34 200.521H106.615C105.153 200.521 103.953 201.275 103.953 202.183V202.261C103.953 203.169 105.152 203.924 106.615 203.924H179.244C180.707 203.924 181.906 203.169 181.906 202.261V202.183C181.906 201.275 181.347 200.521 180.666 200.521C179.982 200.521 178.246 200.405 176.794 200.269L159.228 194.52C157.992 194.03 156.983 192.882 156.983 191.967V183.466H198.457C208.461 183.453 216.564 176.318 216.586 167.501V109.042C216.563 100.231 208.46 93.0899 198.455 93.0768ZM180.771 180.237H166.171C165.147 180.237 164.317 179.509 164.317 178.6C164.317 177.697 165.147 176.969 166.171 176.969H180.771C181.796 176.969 182.626 177.697 182.626 178.6C182.626 179.509 181.796 180.237 180.771 180.237ZM186.959 180.282C185.903 180.282 185.05 179.534 185.05 178.6C185.05 177.672 185.903 176.924 186.959 176.924C188.009 176.924 188.868 177.672 188.868 178.6C188.868 179.534 188.008 180.282 186.959 180.282ZM206.116 167.501C206.112 171.181 202.635 174.243 198.455 174.255H87.4023C83.2187 174.242 79.745 171.181 79.7375 167.501V109.042C79.745 105.368 83.2187 102.3 87.4023 102.293H198.456C202.635 102.3 206.113 105.368 206.117 109.042V167.501H206.116Z" fill="white"/>
<path d="M95.5638 127.121V133.224V133.379C95.5638 134.423 95.096 135.235 94.1484 135.79C93.2048 136.357 91.819 136.634 89.9905 136.634V141.223C91.8042 141.223 93.1866 141.519 94.1369 142.106C95.0879 142.692 95.5631 143.543 95.5631 144.659V150.698C95.5631 152.67 96.2647 154.056 97.6768 154.855C99.0814 155.654 101.56 156.054 105.1 156.054V151.716C103.645 151.684 102.654 151.439 102.116 150.988C101.583 150.543 101.312 149.879 101.312 149.009V143.279V143.105C101.312 140.843 99.6152 139.483 96.2149 139.038V138.806C99.5276 138.374 101.225 136.95 101.312 134.546V128.809C101.312 127.939 101.583 127.282 102.127 126.831C102.672 126.386 103.667 126.141 105.1 126.103V121.791C101.56 121.791 99.0814 122.191 97.6768 122.983C96.2661 123.788 95.5638 125.168 95.5638 127.121Z" fill="#FF931E"/>
<path d="M120.839 132.709C121.738 132.709 122.642 132.825 123.538 133.064C124.441 133.296 125.413 133.598 126.459 133.972L128.415 129.441C126.184 128.474 123.655 127.984 120.839 127.984C116.992 127.984 114.041 128.951 111.982 130.878C109.92 132.793 108.889 135.583 108.889 139.231C108.889 146.553 112.677 150.221 120.254 150.221C121.921 150.221 123.304 150.105 124.4 149.873C125.493 149.647 126.579 149.228 127.655 148.628V143.62C126.565 144.258 125.479 144.729 124.393 145.032C123.304 145.335 122.119 145.483 120.839 145.483C117.387 145.483 115.661 143.382 115.661 139.193C115.661 134.868 117.387 132.709 120.839 132.709Z" fill="#FF931E"/>
<path d="M147.679 138.69C146.793 138.097 145.401 137.472 143.503 136.789C141.371 136.034 139.985 135.467 139.353 135.087C138.727 134.701 138.409 134.249 138.409 133.721C138.409 132.786 139.386 132.322 141.345 132.322C142.449 132.322 143.532 132.47 144.593 132.76C145.653 133.057 146.786 133.43 148.008 133.895L150.012 129.673C147.24 128.545 144.388 127.984 141.455 127.984C138.38 127.984 135.999 128.506 134.328 129.551C132.65 130.588 131.809 132.065 131.809 133.972C131.809 135.087 132.014 136.022 132.412 136.783C132.811 137.543 133.451 138.214 134.328 138.806C135.202 139.399 136.581 140.037 138.449 140.727C139.755 141.21 140.801 141.636 141.587 142.003C142.369 142.363 142.921 142.692 143.239 142.982C143.561 143.266 143.722 143.639 143.722 144.097C143.722 145.328 142.515 145.941 140.102 145.941C138.932 145.941 137.568 145.767 136.028 145.425C134.477 145.077 133.088 144.652 131.852 144.143V148.977C132.942 149.383 134.112 149.693 135.362 149.905C136.606 150.117 138.119 150.221 139.889 150.221C143.342 150.221 145.937 149.647 147.671 148.493C149.404 147.34 150.274 145.67 150.274 143.466C150.274 142.409 150.062 141.494 149.642 140.727C149.222 139.953 148.571 139.277 147.679 138.69Z" fill="#FF931E"/>
<path d="M169.838 138.69C168.957 138.097 167.564 137.472 165.662 136.789C163.527 136.034 162.148 135.467 161.516 135.087C160.887 134.701 160.572 134.249 160.572 133.721C160.572 132.786 161.552 132.322 163.509 132.322C164.61 132.322 165.692 132.47 166.752 132.76C167.813 133.057 168.95 133.43 170.168 133.895L172.175 129.673C169.401 128.545 166.552 127.984 163.623 127.984C160.544 127.984 158.164 128.506 156.489 129.551C154.81 130.588 153.977 132.065 153.977 133.972C153.977 135.087 154.174 136.022 154.577 136.783C154.972 137.543 155.612 138.214 156.489 138.806C157.366 139.399 158.745 140.037 160.614 140.727C161.918 141.21 162.964 141.636 163.747 142.003C164.53 142.363 165.082 142.692 165.4 142.982C165.722 143.266 165.882 143.639 165.882 144.097C165.882 145.328 164.679 145.941 162.27 145.941C161.092 145.941 159.732 145.767 158.189 145.425C156.638 145.077 155.249 144.652 154.02 144.143V148.977C155.106 149.383 156.276 149.693 157.523 149.905C158.766 150.117 160.28 150.221 162.05 150.221C165.502 150.221 168.098 149.647 169.831 148.493C171.568 147.34 172.435 145.67 172.435 143.466C172.435 142.409 172.223 141.494 171.805 140.727C171.381 139.953 170.731 139.277 169.838 138.69Z" fill="#FF931E"/>
<path d="M186.791 135.829C185.899 135.3 185.453 134.488 185.453 133.412V133.225V127.121C185.453 125.716 185.161 124.647 184.575 123.905C183.983 123.177 183.003 122.635 181.62 122.293C180.238 121.958 178.344 121.791 175.919 121.791V126.103C177.367 126.141 178.362 126.379 178.9 126.811C179.434 127.25 179.704 127.913 179.704 128.809V134.546C179.792 136.95 181.481 138.374 184.779 138.806V139.038C183.108 139.251 181.847 139.708 180.991 140.391C180.135 141.074 179.704 141.964 179.704 143.066V143.279V149.008C179.704 149.917 179.434 150.594 178.885 151.026C178.344 151.463 177.356 151.689 175.919 151.715V156.053C178.344 156.053 180.238 155.885 181.609 155.544C182.98 155.209 183.968 154.673 184.56 153.939C185.157 153.217 185.452 152.135 185.452 150.697V144.658C185.452 143.414 185.928 142.531 186.878 142.009C187.829 141.487 189.211 141.222 191.024 141.222V136.633C189.097 136.634 187.683 136.37 186.791 135.829Z" fill="#FF931E"/>
</svg>
