<svg width="244" height="321" viewBox="0 0 244 321" fill="none" xmlns="http://www.w3.org/2000/svg">
<path d="M167.5 68.9062V49.2188L155.871 46.8923C155.025 44.0442 153.909 41.3142 152.518 38.7483L159.084 28.898L145.161 14.9756L135.311 21.5414C132.748 20.1502 130.015 19.0345 127.167 18.188L124.844 6.5625H105.156L102.83 18.1913C99.9817 19.0378 97.2517 20.1534 94.6858 21.5447L84.8355 14.9789L70.9131 28.9012L77.4789 38.7516C76.0877 41.3142 74.972 44.0475 74.1255 46.8956L62.5 49.2188V68.9062L74.1288 71.2327C74.9753 74.0808 76.0909 76.8108 77.4822 79.3767L70.9164 89.227L66.4277 95.5861C77.8563 99.3234 95.3552 101.719 115 101.719C134.645 101.719 152.144 99.3234 163.572 95.5861L159.084 89.227L152.518 79.3767C153.909 76.8141 155.025 74.0808 155.871 71.2327L167.5 68.9062ZM115 85.3125C100.503 85.3125 88.75 73.5591 88.75 59.0625C88.75 44.5659 100.503 32.8125 115 32.8125C129.497 32.8125 141.25 44.5659 141.25 59.0625C141.25 73.5591 129.497 85.3125 115 85.3125Z" fill="#F99F72"/>
<path d="M85.4688 157.5C72.8031 157.5 62.5 147.197 62.5 134.531C62.5 121.866 72.8031 111.562 85.4688 111.562C98.1344 111.562 108.438 121.866 108.438 134.531C108.438 147.197 98.1344 157.5 85.4688 157.5ZM85.4688 118.125C76.4223 118.125 69.0625 125.485 69.0625 134.531C69.0625 143.578 76.4223 150.938 85.4688 150.938C94.5152 150.938 101.875 143.578 101.875 134.531C101.875 125.485 94.5152 118.125 85.4688 118.125Z" fill="#CD6889"/>
<path d="M144.531 157.5C131.866 157.5 121.562 147.197 121.562 134.531C121.562 121.866 131.866 111.562 144.531 111.562C157.197 111.562 167.5 121.866 167.5 134.531C167.5 147.197 157.197 157.5 144.531 157.5ZM144.531 118.125C135.485 118.125 128.125 125.485 128.125 134.531C128.125 143.578 135.485 150.938 144.531 150.938C153.578 150.938 160.938 143.578 160.938 134.531C160.938 125.485 153.578 118.125 144.531 118.125Z" fill="#CD6889"/>
<path d="M118.281 16.4062H111.719V22.9688H118.281V16.4062Z" fill="#3F3A34"/>
<path d="M87.1583 26.5799L82.5179 31.2202L87.1583 35.8606L91.7986 31.2202L87.1583 26.5799Z" fill="#3F3A34"/>
<path d="M78.9062 55.7812H72.3438V62.3438H78.9062V55.7812Z" fill="#3F3A34"/>
<path d="M87.1563 82.263L82.516 86.9033L87.1563 91.5437L91.7967 86.9033L87.1563 82.263Z" fill="#3F3A34"/>
<path d="M142.839 82.2649L138.199 86.9053L142.839 91.5456L147.48 86.9053L142.839 82.2649Z" fill="#3F3A34"/>
<path d="M157.656 55.7812H151.094V62.3438H157.656V55.7812Z" fill="#3F3A34"/>
<path d="M142.841 26.5818L138.201 31.2222L142.841 35.8625L147.482 31.2222L142.841 26.5818Z" fill="#3F3A34"/>
<path d="M115 88.5938C131.282 88.5938 144.531 75.3441 144.531 59.0625C144.531 42.7809 131.282 29.5312 115 29.5312C98.7184 29.5312 85.4688 42.7809 85.4688 59.0625C85.4688 75.3441 98.7184 88.5938 115 88.5938ZM115 36.0938C127.666 36.0938 137.969 46.3969 137.969 59.0625C137.969 71.7281 127.666 82.0312 115 82.0312C102.334 82.0312 92.0312 71.7281 92.0312 59.0625C92.0312 46.3969 102.334 36.0938 115 36.0938Z" fill="#3F3A34"/>
<path d="M73.6858 79.1569L68.1864 87.4059L73.6464 91.0448L81.3114 79.5473L80.3664 77.8083C79.1064 75.4884 78.0663 72.9619 77.2722 70.2942L76.7078 68.4009L65.7813 66.2156V51.9094L76.7111 49.7208L77.2755 47.8275C78.0695 45.1598 79.1097 42.6333 80.3697 40.3134L81.3147 38.5744L75.1427 29.3147L85.2588 19.1986L94.5184 25.3706L96.2575 24.4256C98.5773 23.1656 101.104 22.1255 103.772 21.3314L105.665 20.767L107.847 9.84375H122.153L124.342 20.7736L126.235 21.338C128.903 22.132 131.429 23.1722 133.749 24.4322L135.488 25.3772L144.748 19.2052L156.767 31.2244L161.407 26.5847L145.581 10.7559L135.094 17.745C133.467 16.9575 131.767 16.2553 130.008 15.6548L127.534 3.28125H102.466L99.9916 15.6548C98.2328 16.2586 96.5331 16.9575 94.9056 17.745L84.4188 10.7559L66.6934 28.4813L73.6825 38.9681C72.895 40.5956 72.1928 42.2953 71.5923 44.0541L59.2188 46.5281V71.5969L71.5923 74.0709C72.1961 75.8297 72.895 77.5294 73.6858 79.1569Z" fill="#3F3A34"/>
<path d="M170.781 71.597V46.5282L158.408 44.0542C157.581 41.6457 156.573 39.339 155.402 37.1865L149.634 40.3168C150.894 42.6367 151.934 45.1632 152.728 47.8309L153.292 49.7242L164.219 51.9095V66.2157L153.289 68.4043L152.725 70.2976C151.93 72.9653 150.89 75.4918 149.63 77.8117L148.685 79.5507L156.35 91.0482L161.81 87.4093L156.311 79.1603C157.098 77.5328 157.801 75.8331 158.401 74.0743L170.781 71.597Z" fill="#3F3A34"/>
<path d="M115 105C147.612 105 180.625 98.2372 180.625 85.3124C180.625 81.4602 177.829 78.0313 172.314 75.1175L169.246 80.9221C172.803 82.7957 174.062 84.4593 174.062 85.3124C174.062 89.765 153.213 98.4374 115 98.4374C76.7866 98.4374 55.9375 89.765 55.9375 85.3124C55.9375 84.4593 57.1975 82.7957 60.7511 80.9188L57.6831 75.1143C52.1706 78.0313 49.375 81.4602 49.375 85.3124C49.375 98.2372 82.3877 105 115 105Z" fill="#3F3A34"/>
<path d="M75.625 134.531C75.625 139.958 80.0416 144.375 85.4688 144.375C90.8959 144.375 95.3125 139.958 95.3125 134.531C95.3125 129.104 90.8959 124.688 85.4688 124.688C80.0416 124.688 75.625 129.104 75.625 134.531ZM88.75 134.531C88.75 136.339 87.2767 137.812 85.4688 137.812C83.6608 137.812 82.1875 136.339 82.1875 134.531C82.1875 132.723 83.6608 131.25 85.4688 131.25C87.2767 131.25 88.75 132.723 88.75 134.531Z" fill="#3F3A34"/>
<path d="M134.688 134.531C134.688 139.958 139.104 144.375 144.531 144.375C149.958 144.375 154.375 139.958 154.375 134.531C154.375 129.104 149.958 124.688 144.531 124.688C139.104 124.688 134.688 129.104 134.688 134.531ZM147.812 134.531C147.812 136.339 146.339 137.812 144.531 137.812C142.723 137.812 141.25 136.339 141.25 134.531C141.25 132.723 142.723 131.25 144.531 131.25C146.339 131.25 147.812 132.723 147.812 134.531Z" fill="#3F3A34"/>
<path d="M210.156 59.0625C210.156 53.6353 205.74 49.2188 200.312 49.2188C194.885 49.2188 190.469 53.6353 190.469 59.0625C190.469 63.3347 193.222 66.9441 197.031 68.3025V110.667C192.9 105.975 187.135 102.765 180.625 101.948V98.4375H174.062V145.035C174.062 156.427 169.626 167.14 161.568 175.196L141.414 195.349C138.317 198.45 134.195 200.156 129.815 200.156H100.188C95.808 200.156 91.6867 198.45 88.5859 195.352L68.4325 175.199C60.3738 167.14 55.9375 156.427 55.9375 145.035V98.4375H49.375V101.945C42.865 102.762 37.0998 105.968 32.9688 110.663V68.3025C36.7783 66.9441 39.5312 63.3347 39.5312 59.0625C39.5312 53.6353 35.1147 49.2188 29.6875 49.2188C24.2603 49.2188 19.8438 53.6353 19.8438 59.0625C19.8438 63.3347 22.5967 66.9441 26.4062 68.3025V127.969C26.4062 141.622 36.8898 152.867 50.2281 154.097C52.023 163.79 56.6692 172.718 63.7895 179.839L83.943 199.992C88.2808 204.33 94.0492 206.719 100.185 206.719H129.812C135.947 206.719 141.713 204.33 146.054 199.992L166.207 179.839C173.331 172.718 177.974 163.79 179.769 154.097C193.11 152.867 203.594 141.622 203.594 127.969V68.3025C207.403 66.9441 210.156 63.3347 210.156 59.0625ZM29.6875 55.7812C31.4955 55.7812 32.9688 57.2545 32.9688 59.0625C32.9688 60.8705 31.4955 62.3438 29.6875 62.3438C27.8795 62.3438 26.4062 60.8705 26.4062 59.0625C26.4062 57.2545 27.8795 55.7812 29.6875 55.7812ZM32.9688 127.969C32.9688 118.233 40.0792 110.148 49.375 108.577V124.688H39.5312V131.25H49.375V145.035C49.375 145.822 49.4537 146.596 49.4898 147.377C40.1383 145.855 32.9688 137.744 32.9688 127.969ZM180.51 147.377C180.546 146.596 180.625 145.822 180.625 145.035V131.25H190.469V124.688H180.625V108.577C189.921 110.145 197.031 118.23 197.031 127.969C197.031 137.744 189.862 145.855 180.51 147.377ZM200.312 62.3438C198.505 62.3438 197.031 60.8705 197.031 59.0625C197.031 57.2545 198.505 55.7812 200.312 55.7812C202.12 55.7812 203.594 57.2545 203.594 59.0625C203.594 60.8705 202.12 62.3438 200.312 62.3438Z" fill="#3F3A34"/>
<path d="M3.76 262V234H8.96V262H3.76ZM28.1734 240.4C29.8801 240.4 31.4001 240.733 32.7334 241.4C34.0934 242.067 35.1601 243.093 35.9334 244.48C36.7068 245.84 37.0934 247.6 37.0934 249.76V262H32.0934V250.4C32.0934 248.507 31.6401 247.093 30.7334 246.16C29.8534 245.227 28.6134 244.76 27.0134 244.76C25.8401 244.76 24.8001 245 23.8934 245.48C22.9868 245.96 22.2801 246.68 21.7734 247.64C21.2934 248.573 21.0534 249.76 21.0534 251.2V262H16.0534V240.64H20.8134V246.4L19.9734 244.64C20.7201 243.28 21.8001 242.24 23.2134 241.52C24.6534 240.773 26.3068 240.4 28.1734 240.4ZM51.4763 262.28C49.1296 262.28 47.3163 261.68 46.0362 260.48C44.7563 259.253 44.1163 257.453 44.1163 255.08V235.92H49.1163V254.96C49.1163 255.973 49.3696 256.76 49.8763 257.32C50.4096 257.88 51.1429 258.16 52.0763 258.16C53.1963 258.16 54.1296 257.867 54.8763 257.28L56.2763 260.84C55.6896 261.32 54.9696 261.68 54.1163 261.92C53.2629 262.16 52.3829 262.28 51.4763 262.28ZM40.5963 244.8V240.8H54.8363V244.8H40.5963ZM69.7263 262.28C67.3529 262.28 65.2729 261.813 63.4863 260.88C61.7263 259.92 60.3529 258.613 59.3663 256.96C58.4063 255.307 57.9263 253.427 57.9263 251.32C57.9263 249.187 58.3929 247.307 59.3263 245.68C60.2863 244.027 61.5929 242.733 63.2463 241.8C64.9263 240.867 66.8329 240.4 68.9663 240.4C71.0463 240.4 72.8996 240.853 74.5263 241.76C76.1529 242.667 77.4329 243.947 78.3663 245.6C79.2996 247.253 79.7663 249.2 79.7663 251.44C79.7663 251.653 79.7529 251.893 79.7263 252.16C79.7263 252.427 79.7129 252.68 79.6863 252.92H61.8863V249.6H77.0463L75.0863 250.64C75.1129 249.413 74.8596 248.333 74.3263 247.4C73.7929 246.467 73.0596 245.733 72.1263 245.2C71.2196 244.667 70.1663 244.4 68.9663 244.4C67.7396 244.4 66.6596 244.667 65.7263 245.2C64.8196 245.733 64.0996 246.48 63.5663 247.44C63.0596 248.373 62.8063 249.48 62.8063 250.76V251.56C62.8063 252.84 63.0996 253.973 63.6863 254.96C64.2729 255.947 65.0996 256.707 66.1663 257.24C67.2329 257.773 68.4596 258.04 69.8463 258.04C71.0463 258.04 72.1263 257.853 73.0863 257.48C74.0463 257.107 74.8996 256.52 75.6463 255.72L78.3263 258.8C77.3663 259.92 76.1529 260.787 74.6863 261.4C73.2463 261.987 71.5929 262.28 69.7263 262.28ZM84.5691 262V232.32H89.5691V262H84.5691ZM96.1316 262V232.32H101.132V262H96.1316ZM107.694 262V240.64H112.694V262H107.694ZM110.214 237.12C109.281 237.12 108.507 236.827 107.894 236.24C107.307 235.653 107.014 234.947 107.014 234.12C107.014 233.267 107.307 232.56 107.894 232C108.507 231.413 109.281 231.12 110.214 231.12C111.147 231.12 111.907 231.4 112.494 231.96C113.107 232.493 113.414 233.173 113.414 234C113.414 234.88 113.121 235.627 112.534 236.24C111.947 236.827 111.174 237.12 110.214 237.12ZM128.937 270.04C126.963 270.04 125.03 269.773 123.137 269.24C121.27 268.733 119.737 267.987 118.537 267L120.777 263.24C121.71 264.013 122.883 264.627 124.297 265.08C125.737 265.56 127.19 265.8 128.657 265.8C131.003 265.8 132.723 265.253 133.817 264.16C134.91 263.093 135.457 261.48 135.457 259.32V255.52L135.857 250.68L135.697 245.84V240.64H140.457V258.76C140.457 262.627 139.47 265.467 137.497 267.28C135.523 269.12 132.67 270.04 128.937 270.04ZM128.297 261.04C126.27 261.04 124.43 260.613 122.777 259.76C121.15 258.88 119.857 257.667 118.897 256.12C117.963 254.573 117.497 252.76 117.497 250.68C117.497 248.627 117.963 246.827 118.897 245.28C119.857 243.733 121.15 242.533 122.777 241.68C124.43 240.827 126.27 240.4 128.297 240.4C130.11 240.4 131.737 240.76 133.177 241.48C134.617 242.2 135.763 243.32 136.617 244.84C137.497 246.36 137.937 248.307 137.937 250.68C137.937 253.053 137.497 255.013 136.617 256.56C135.763 258.08 134.617 259.213 133.177 259.96C131.737 260.68 130.11 261.04 128.297 261.04ZM129.057 256.8C130.31 256.8 131.43 256.547 132.417 256.04C133.403 255.507 134.163 254.787 134.697 253.88C135.257 252.947 135.537 251.88 135.537 250.68C135.537 249.48 135.257 248.427 134.697 247.52C134.163 246.587 133.403 245.88 132.417 245.4C131.43 244.893 130.31 244.64 129.057 244.64C127.803 244.64 126.67 244.893 125.657 245.4C124.67 245.88 123.897 246.587 123.337 247.52C122.803 248.427 122.537 249.48 122.537 250.68C122.537 251.88 122.803 252.947 123.337 253.88C123.897 254.787 124.67 255.507 125.657 256.04C126.67 256.547 127.803 256.8 129.057 256.8ZM157.07 262.28C154.697 262.28 152.617 261.813 150.83 260.88C149.07 259.92 147.697 258.613 146.71 256.96C145.75 255.307 145.27 253.427 145.27 251.32C145.27 249.187 145.737 247.307 146.67 245.68C147.63 244.027 148.937 242.733 150.59 241.8C152.27 240.867 154.177 240.4 156.31 240.4C158.39 240.4 160.243 240.853 161.87 241.76C163.497 242.667 164.777 243.947 165.71 245.6C166.643 247.253 167.11 249.2 167.11 251.44C167.11 251.653 167.097 251.893 167.07 252.16C167.07 252.427 167.057 252.68 167.03 252.92H149.23V249.6H164.39L162.43 250.64C162.457 249.413 162.203 248.333 161.67 247.4C161.137 246.467 160.403 245.733 159.47 245.2C158.563 244.667 157.51 244.4 156.31 244.4C155.083 244.4 154.003 244.667 153.07 245.2C152.163 245.733 151.443 246.48 150.91 247.44C150.403 248.373 150.15 249.48 150.15 250.76V251.56C150.15 252.84 150.443 253.973 151.03 254.96C151.617 255.947 152.443 256.707 153.51 257.24C154.577 257.773 155.803 258.04 157.19 258.04C158.39 258.04 159.47 257.853 160.43 257.48C161.39 257.107 162.243 256.52 162.99 255.72L165.67 258.8C164.71 259.92 163.497 260.787 162.03 261.4C160.59 261.987 158.937 262.28 157.07 262.28ZM184.033 240.4C185.739 240.4 187.259 240.733 188.593 241.4C189.953 242.067 191.019 243.093 191.793 244.48C192.566 245.84 192.953 247.6 192.953 249.76V262H187.953V250.4C187.953 248.507 187.499 247.093 186.593 246.16C185.713 245.227 184.473 244.76 182.873 244.76C181.699 244.76 180.659 245 179.753 245.48C178.846 245.96 178.139 246.68 177.633 247.64C177.153 248.573 176.913 249.76 176.913 251.2V262H171.913V240.64H176.673V246.4L175.833 244.64C176.579 243.28 177.659 242.24 179.073 241.52C180.513 240.773 182.166 240.4 184.033 240.4ZM209.135 262.28C206.895 262.28 204.895 261.813 203.135 260.88C201.401 259.92 200.041 258.613 199.055 256.96C198.068 255.307 197.575 253.427 197.575 251.32C197.575 249.187 198.068 247.307 199.055 245.68C200.041 244.027 201.401 242.733 203.135 241.8C204.895 240.867 206.895 240.4 209.135 240.4C211.215 240.4 213.041 240.827 214.615 241.68C216.215 242.507 217.428 243.733 218.255 245.36L214.415 247.6C213.775 246.587 212.988 245.84 212.055 245.36C211.148 244.88 210.161 244.64 209.095 244.64C207.868 244.64 206.761 244.907 205.775 245.44C204.788 245.973 204.015 246.747 203.455 247.76C202.895 248.747 202.615 249.933 202.615 251.32C202.615 252.707 202.895 253.907 203.455 254.92C204.015 255.907 204.788 256.667 205.775 257.2C206.761 257.733 207.868 258 209.095 258C210.161 258 211.148 257.76 212.055 257.28C212.988 256.8 213.775 256.053 214.415 255.04L218.255 257.28C217.428 258.88 216.215 260.12 214.615 261C213.041 261.853 211.215 262.28 209.135 262.28ZM232.304 262.28C229.931 262.28 227.851 261.813 226.064 260.88C224.304 259.92 222.931 258.613 221.944 256.96C220.984 255.307 220.504 253.427 220.504 251.32C220.504 249.187 220.971 247.307 221.904 245.68C222.864 244.027 224.171 242.733 225.824 241.8C227.504 240.867 229.411 240.4 231.544 240.4C233.624 240.4 235.478 240.853 237.104 241.76C238.731 242.667 240.011 243.947 240.944 245.6C241.878 247.253 242.344 249.2 242.344 251.44C242.344 251.653 242.331 251.893 242.304 252.16C242.304 252.427 242.291 252.68 242.264 252.92H224.464V249.6H239.624L237.664 250.64C237.691 249.413 237.438 248.333 236.904 247.4C236.371 246.467 235.638 245.733 234.704 245.2C233.798 244.667 232.744 244.4 231.544 244.4C230.318 244.4 229.238 244.667 228.304 245.2C227.398 245.733 226.678 246.48 226.144 247.44C225.638 248.373 225.384 249.48 225.384 250.76V251.56C225.384 252.84 225.678 253.973 226.264 254.96C226.851 255.947 227.678 256.707 228.744 257.24C229.811 257.773 231.038 258.04 232.424 258.04C233.624 258.04 234.704 257.853 235.664 257.48C236.624 257.107 237.478 256.52 238.224 255.72L240.904 258.8C239.944 259.92 238.731 260.787 237.264 261.4C235.824 261.987 234.171 262.28 232.304 262.28ZM27.4947 311V306.68L27.2147 305.76V298.2C27.2147 296.733 26.7747 295.6 25.8947 294.8C25.0147 293.973 23.6814 293.56 21.8947 293.56C20.6947 293.56 19.508 293.747 18.3347 294.12C17.188 294.493 16.2147 295.013 15.4147 295.68L13.4547 292.04C14.6014 291.16 15.9614 290.507 17.5347 290.08C19.1347 289.627 20.788 289.4 22.4947 289.4C25.588 289.4 27.9747 290.147 29.6547 291.64C31.3614 293.107 32.2147 295.387 32.2147 298.48V311H27.4947ZM20.7747 311.28C19.1747 311.28 17.7747 311.013 16.5747 310.48C15.3747 309.92 14.4414 309.16 13.7747 308.2C13.1347 307.213 12.8147 306.107 12.8147 304.88C12.8147 303.68 13.0947 302.6 13.6547 301.64C14.2414 300.68 15.188 299.92 16.4947 299.36C17.8014 298.8 19.5347 298.52 21.6947 298.52H27.8947V301.84H22.0547C20.348 301.84 19.2014 302.12 18.6147 302.68C18.028 303.213 17.7347 303.88 17.7347 304.68C17.7347 305.587 18.0947 306.307 18.8147 306.84C19.5347 307.373 20.5347 307.64 21.8147 307.64C23.0414 307.64 24.1347 307.36 25.0947 306.8C26.0814 306.24 26.788 305.413 27.2147 304.32L28.0547 307.32C27.5747 308.573 26.708 309.547 25.4547 310.24C24.228 310.933 22.668 311.28 20.7747 311.28ZM38.6316 311V289.64H43.3916V295.52L42.8316 293.8C43.4716 292.36 44.4716 291.267 45.8316 290.52C47.2182 289.773 48.9382 289.4 50.9916 289.4V294.16C50.7782 294.107 50.5782 294.08 50.3916 294.08C50.2049 294.053 50.0182 294.04 49.8316 294.04C47.9382 294.04 46.4316 294.6 45.3116 295.72C44.1916 296.813 43.6316 298.453 43.6316 300.64V311H38.6316ZM64.0544 311.28C61.7077 311.28 59.8944 310.68 58.6144 309.48C57.3344 308.253 56.6944 306.453 56.6944 304.08V284.92H61.6944V303.96C61.6944 304.973 61.9477 305.76 62.4544 306.32C62.9877 306.88 63.721 307.16 64.6544 307.16C65.7744 307.16 66.7077 306.867 67.4544 306.28L68.8544 309.84C68.2677 310.32 67.5477 310.68 66.6944 310.92C65.841 311.16 64.961 311.28 64.0544 311.28ZM53.1744 293.8V289.8H67.4144V293.8H53.1744ZM72.9675 311V289.64H77.9675V311H72.9675ZM75.4875 286.12C74.5542 286.12 73.7808 285.827 73.1675 285.24C72.5808 284.653 72.2875 283.947 72.2875 283.12C72.2875 282.267 72.5808 281.56 73.1675 281C73.7808 280.413 74.5542 280.12 75.4875 280.12C76.4208 280.12 77.1808 280.4 77.7675 280.96C78.3808 281.493 78.6875 282.173 78.6875 283C78.6875 283.88 78.3942 284.627 77.8075 285.24C77.2208 285.827 76.4475 286.12 75.4875 286.12ZM85.21 311V288.44C85.21 286.2 85.8633 284.413 87.17 283.08C88.5033 281.72 90.3967 281.04 92.85 281.04C93.73 281.04 94.5567 281.133 95.33 281.32C96.13 281.507 96.7967 281.8 97.33 282.2L95.97 285.96C95.5967 285.667 95.17 285.453 94.69 285.32C94.21 285.16 93.7167 285.08 93.21 285.08C92.17 285.08 91.3833 285.373 90.85 285.96C90.3167 286.52 90.05 287.373 90.05 288.52V290.92L90.21 293.16V311H85.21ZM81.69 293.8V289.8H95.93V293.8H81.69ZM99.45 311V289.64H104.45V311H99.45ZM101.97 286.12C101.037 286.12 100.263 285.827 99.65 285.24C99.0633 284.653 98.77 283.947 98.77 283.12C98.77 282.267 99.0633 281.56 99.65 281C100.263 280.413 101.037 280.12 101.97 280.12C102.903 280.12 103.663 280.4 104.25 280.96C104.863 281.493 105.17 282.173 105.17 283C105.17 283.88 104.877 284.627 104.29 285.24C103.703 285.827 102.93 286.12 101.97 286.12ZM120.814 311.28C118.574 311.28 116.574 310.813 114.814 309.88C113.081 308.92 111.721 307.613 110.734 305.96C109.748 304.307 109.254 302.427 109.254 300.32C109.254 298.187 109.748 296.307 110.734 294.68C111.721 293.027 113.081 291.733 114.814 290.8C116.574 289.867 118.574 289.4 120.814 289.4C122.894 289.4 124.721 289.827 126.294 290.68C127.894 291.507 129.108 292.733 129.934 294.36L126.094 296.6C125.454 295.587 124.668 294.84 123.734 294.36C122.828 293.88 121.841 293.64 120.774 293.64C119.548 293.64 118.441 293.907 117.454 294.44C116.468 294.973 115.694 295.747 115.134 296.76C114.574 297.747 114.294 298.933 114.294 300.32C114.294 301.707 114.574 302.907 115.134 303.92C115.694 304.907 116.468 305.667 117.454 306.2C118.441 306.733 119.548 307 120.774 307C121.841 307 122.828 306.76 123.734 306.28C124.668 305.8 125.454 305.053 126.094 304.04L129.934 306.28C129.108 307.88 127.894 309.12 126.294 310C124.721 310.853 122.894 311.28 120.814 311.28ZM134.061 311V289.64H139.061V311H134.061ZM136.581 286.12C135.648 286.12 134.875 285.827 134.261 285.24C133.675 284.653 133.381 283.947 133.381 283.12C133.381 282.267 133.675 281.56 134.261 281C134.875 280.413 135.648 280.12 136.581 280.12C137.515 280.12 138.275 280.4 138.861 280.96C139.475 281.493 139.781 282.173 139.781 283C139.781 283.88 139.488 284.627 138.901 285.24C138.315 285.827 137.541 286.12 136.581 286.12ZM155.664 311.28C153.29 311.28 151.21 310.813 149.424 309.88C147.664 308.92 146.29 307.613 145.304 305.96C144.344 304.307 143.864 302.427 143.864 300.32C143.864 298.187 144.33 296.307 145.264 294.68C146.224 293.027 147.53 291.733 149.184 290.8C150.864 289.867 152.77 289.4 154.904 289.4C156.984 289.4 158.837 289.853 160.464 290.76C162.09 291.667 163.37 292.947 164.304 294.6C165.237 296.253 165.704 298.2 165.704 300.44C165.704 300.653 165.69 300.893 165.664 301.16C165.664 301.427 165.65 301.68 165.624 301.92H147.824V298.6H162.984L161.024 299.64C161.05 298.413 160.797 297.333 160.264 296.4C159.73 295.467 158.997 294.733 158.064 294.2C157.157 293.667 156.104 293.4 154.904 293.4C153.677 293.4 152.597 293.667 151.664 294.2C150.757 294.733 150.037 295.48 149.504 296.44C148.997 297.373 148.744 298.48 148.744 299.76V300.56C148.744 301.84 149.037 302.973 149.624 303.96C150.21 304.947 151.037 305.707 152.104 306.24C153.17 306.773 154.397 307.04 155.784 307.04C156.984 307.04 158.064 306.853 159.024 306.48C159.984 306.107 160.837 305.52 161.584 304.72L164.264 307.8C163.304 308.92 162.09 309.787 160.624 310.4C159.184 310.987 157.53 311.28 155.664 311.28ZM170.507 311V281.32H175.507V311H170.507ZM182.069 311V281.32H187.069V311H182.069ZM203.672 311.28C201.298 311.28 199.218 310.813 197.432 309.88C195.672 308.92 194.298 307.613 193.312 305.96C192.352 304.307 191.872 302.427 191.872 300.32C191.872 298.187 192.338 296.307 193.272 294.68C194.232 293.027 195.538 291.733 197.192 290.8C198.872 289.867 200.778 289.4 202.912 289.4C204.992 289.4 206.845 289.853 208.472 290.76C210.098 291.667 211.378 292.947 212.312 294.6C213.245 296.253 213.712 298.2 213.712 300.44C213.712 300.653 213.698 300.893 213.672 301.16C213.672 301.427 213.658 301.68 213.632 301.92H195.832V298.6H210.992L209.032 299.64C209.058 298.413 208.805 297.333 208.272 296.4C207.738 295.467 207.005 294.733 206.072 294.2C205.165 293.667 204.112 293.4 202.912 293.4C201.685 293.4 200.605 293.667 199.672 294.2C198.765 294.733 198.045 295.48 197.512 296.44C197.005 297.373 196.752 298.48 196.752 299.76V300.56C196.752 301.84 197.045 302.973 197.632 303.96C198.218 304.947 199.045 305.707 200.112 306.24C201.178 306.773 202.405 307.04 203.792 307.04C204.992 307.04 206.072 306.853 207.032 306.48C207.992 306.107 208.845 305.52 209.592 304.72L212.272 307.8C211.312 308.92 210.098 309.787 208.632 310.4C207.192 310.987 205.538 311.28 203.672 311.28Z" fill="white"/>
</svg>
