<svg width="90" height="90" viewBox="0 0 242 280" fill="none" xmlns="http://www.w3.org/2000/svg">
<path d="M178.463 87.1237C178.47 86.924 178.5 86.7309 178.5 86.5312C178.5 57.1239 151.859 33.2812 119 33.2812C90.6334 33.2812 66.9524 51.0601 60.9875 74.8296C38.7345 80.1279 22.3125 98.2263 22.3125 119.812C22.3125 145.546 45.6216 166.406 74.375 166.406H171.062C195.71 166.406 215.688 148.528 215.688 126.469C215.688 106.673 199.578 90.2854 178.463 87.1237Z" fill="white"/>
<path d="M37.1875 119.812C37.1875 98.2263 53.6095 80.1279 75.8625 74.8296C81.2993 53.1701 101.455 36.5362 126.445 33.7405C123.998 33.4676 121.529 33.2812 119 33.2812C90.6334 33.2812 66.9524 51.0601 60.9875 74.8296C38.7345 80.1279 22.3125 98.2263 22.3125 119.812C22.3125 145.546 45.6216 166.406 74.375 166.406H89.25C60.4966 166.406 37.1875 145.546 37.1875 119.812Z" fill="#96527A"/>
<path d="M178.463 87.1237C178.47 86.924 178.5 86.7309 178.5 86.5312C178.5 57.1239 151.859 33.2812 119 33.2812C98.8147 33.2812 81.0391 42.3138 70.2919 56.0722C79.8937 50.1016 91.5408 46.5937 104.125 46.5937C134.418 46.5937 159.743 66.9219 163.194 93.6335C163.707 97.6206 166.838 100.829 171.063 102.167C189.024 107.845 201.713 123.487 200.761 141.698C200.389 148.754 197.845 155.244 193.777 160.802C206.882 153.839 215.688 141.093 215.688 126.469C215.688 106.673 199.578 90.2854 178.463 87.1237Z" fill="#CD6889"/>
<path d="M178.463 87.1237C178.47 86.924 178.5 86.7309 178.5 86.5312C178.5 57.1239 151.859 33.2812 119 33.2812C90.6334 33.2812 66.9524 51.0601 60.9875 74.8296C38.7345 80.1279 22.3125 98.2263 22.3125 119.812C22.3125 145.546 45.6216 166.406 74.375 166.406H171.062C195.71 166.406 215.688 148.528 215.688 126.469C215.688 106.673 199.578 90.2854 178.463 87.1237Z" stroke="white" stroke-width="2" stroke-miterlimit="10" stroke-linecap="round" stroke-linejoin="round"/>
<path d="M76.5541 95.1377C79.4622 92.5351 84.1627 92.5351 87.0708 95.1377L101.946 108.45C104.073 110.354 104.713 113.216 103.56 115.706C102.414 118.195 99.6922 119.812 96.6874 119.812H90.3061C93.6306 131.268 105.174 139.781 119 139.781C123.135 139.781 127.137 139.036 130.893 137.571C134.648 136.08 139.037 137.645 140.68 141.006C142.331 144.374 140.606 148.301 136.843 149.766C131.205 151.975 125.195 153.094 119 153.094C96.9329 153.094 78.6069 138.67 75.0443 119.812H66.9374C63.9327 119.812 61.2106 118.195 60.0652 115.706C58.9124 113.216 59.552 110.354 61.6791 108.45L76.5541 95.1377Z" fill="#F08A5D"/>
<path d="M134.44 110.607C135.586 108.124 138.308 106.5 141.312 106.5H147.694C144.369 95.0512 132.826 86.5312 119 86.5312C114.85 86.5312 110.841 87.2768 107.085 88.7478C103.307 90.2122 98.9336 88.6812 97.2899 85.3198C95.6388 81.9517 97.3568 78.0246 101.12 76.5535C106.765 74.3437 112.79 73.2188 119 73.2188C141.067 73.2188 159.393 87.6428 162.956 106.5H171.062C174.067 106.5 176.789 108.124 177.935 110.607C179.088 113.096 178.448 115.959 176.321 117.862L161.446 131.175C159.995 132.473 158.091 133.125 156.187 133.125C154.283 133.125 152.379 132.473 150.929 131.175L136.054 117.862C133.927 115.959 133.287 113.096 134.44 110.607Z" fill="#F08A5D"/>
<path d="M83.3297 98.2995L98.2047 111.612C100.332 113.516 100.971 116.378 99.8187 118.867C99.7592 118.994 99.6476 119.094 99.5807 119.22C101.328 118.548 102.801 117.35 103.56 115.706C104.713 113.216 104.073 110.354 101.946 108.45L87.0708 95.1377C84.1627 92.5351 79.4622 92.5351 76.5542 95.1377L73.4379 97.9267C76.3534 95.7967 80.6076 95.8633 83.3297 98.2995Z" fill="#B46846"/>
<path d="M140.68 141.006C139.029 137.644 134.641 136.087 130.893 137.571C127.137 139.036 123.135 139.781 119 139.781C106.49 139.781 95.9214 132.779 91.5407 122.974H86.5651C89.8896 134.43 101.433 142.943 115.259 142.943C119.394 142.943 123.396 142.197 127.152 140.733C130.907 139.242 135.296 140.806 136.939 144.168C137.876 146.078 137.631 148.121 136.642 149.839C136.709 149.812 136.776 149.799 136.843 149.772C140.606 148.294 142.331 144.367 140.68 141.006Z" fill="#B46846"/>
<path d="M177.935 110.607C176.789 108.124 174.067 106.5 171.063 106.5H162.956C159.401 87.6428 141.075 73.2188 119 73.2188C112.79 73.2188 106.765 74.3437 101.12 76.5535C98.7328 77.4921 97.3048 79.4423 96.9032 81.579C97.0891 81.4925 97.2081 81.3394 97.4015 81.2662C103.054 79.0496 109.071 77.9314 115.281 77.9314C137.348 77.9314 155.674 92.3555 159.237 111.213H167.344C170.349 111.213 173.071 112.837 174.216 115.32C174.841 116.671 174.9 118.115 174.521 119.473L176.328 117.856C178.448 115.959 179.088 113.096 177.935 110.607Z" fill="#B46846"/>
<path d="M72.9388 221.4C70.8054 221.4 68.8188 221.053 66.9788 220.36C65.1654 219.64 63.5788 218.64 62.2188 217.36C60.8854 216.053 59.8454 214.52 59.0988 212.76C58.3521 211 57.9788 209.08 57.9788 207C57.9788 204.92 58.3521 203 59.0988 201.24C59.8454 199.48 60.8988 197.96 62.2588 196.68C63.6188 195.373 65.2054 194.373 67.0188 193.68C68.8321 192.96 70.8188 192.6 72.9788 192.6C75.2721 192.6 77.3654 193 79.2588 193.8C81.1521 194.573 82.7521 195.733 84.0588 197.28L80.6988 200.44C79.6854 199.347 78.5521 198.533 77.2988 198C76.0454 197.44 74.6854 197.16 73.2188 197.16C71.7521 197.16 70.4054 197.4 69.1788 197.88C67.9788 198.36 66.9254 199.04 66.0188 199.92C65.1388 200.8 64.4454 201.84 63.9388 203.04C63.4588 204.24 63.2188 205.56 63.2188 207C63.2188 208.44 63.4588 209.76 63.9388 210.96C64.4454 212.16 65.1388 213.2 66.0188 214.08C66.9254 214.96 67.9788 215.64 69.1788 216.12C70.4054 216.6 71.7521 216.84 73.2188 216.84C74.6854 216.84 76.0454 216.573 77.2988 216.04C78.5521 215.48 79.6854 214.64 80.6988 213.52L84.0588 216.72C82.7521 218.24 81.1521 219.4 79.2588 220.2C77.3654 221 75.2588 221.4 72.9388 221.4ZM88.5613 221V191.32H93.5613V221H88.5613ZM109.724 221.28C107.537 221.28 105.59 220.813 103.884 219.88C102.177 218.92 100.83 217.613 99.8438 215.96C98.8571 214.307 98.3638 212.427 98.3638 210.32C98.3638 208.187 98.8571 206.307 99.8438 204.68C100.83 203.027 102.177 201.733 103.884 200.8C105.59 199.867 107.537 199.4 109.724 199.4C111.937 199.4 113.897 199.867 115.604 200.8C117.337 201.733 118.684 203.013 119.644 204.64C120.63 206.267 121.124 208.16 121.124 210.32C121.124 212.427 120.63 214.307 119.644 215.96C118.684 217.613 117.337 218.92 115.604 219.88C113.897 220.813 111.937 221.28 109.724 221.28ZM109.724 217C110.95 217 112.044 216.733 113.004 216.2C113.964 215.667 114.71 214.893 115.244 213.88C115.804 212.867 116.084 211.68 116.084 210.32C116.084 208.933 115.804 207.747 115.244 206.76C114.71 205.747 113.964 204.973 113.004 204.44C112.044 203.907 110.964 203.64 109.764 203.64C108.537 203.64 107.444 203.907 106.484 204.44C105.55 204.973 104.804 205.747 104.244 206.76C103.684 207.747 103.404 208.933 103.404 210.32C103.404 211.68 103.684 212.867 104.244 213.88C104.804 214.893 105.55 215.667 106.484 216.2C107.444 216.733 108.524 217 109.724 217ZM134.945 221.28C133.132 221.28 131.532 220.947 130.145 220.28C128.758 219.587 127.678 218.547 126.905 217.16C126.132 215.747 125.745 213.973 125.745 211.84V199.64H130.745V211.16C130.745 213.08 131.172 214.52 132.025 215.48C132.905 216.413 134.145 216.88 135.745 216.88C136.918 216.88 137.932 216.64 138.785 216.16C139.665 215.68 140.345 214.96 140.825 214C141.332 213.04 141.585 211.853 141.585 210.44V199.64H146.585V221H141.825V215.24L142.665 217C141.945 218.387 140.892 219.453 139.505 220.2C138.118 220.92 136.598 221.28 134.945 221.28ZM162.172 221.28C160.118 221.28 158.265 220.827 156.612 219.92C154.985 218.987 153.705 217.707 152.772 216.08C151.838 214.453 151.372 212.533 151.372 210.32C151.372 208.107 151.838 206.187 152.772 204.56C153.705 202.933 154.985 201.667 156.612 200.76C158.265 199.853 160.118 199.4 162.172 199.4C163.958 199.4 165.558 199.8 166.972 200.6C168.385 201.373 169.505 202.56 170.332 204.16C171.158 205.76 171.572 207.813 171.572 210.32C171.572 212.8 171.172 214.853 170.372 216.48C169.572 218.08 168.465 219.28 167.052 220.08C165.638 220.88 164.012 221.28 162.172 221.28ZM162.772 217C163.972 217 165.038 216.733 165.972 216.2C166.932 215.667 167.692 214.893 168.252 213.88C168.838 212.867 169.132 211.68 169.132 210.32C169.132 208.933 168.838 207.747 168.252 206.76C167.692 205.747 166.932 204.973 165.972 204.44C165.038 203.907 163.972 203.64 162.772 203.64C161.572 203.64 160.492 203.907 159.532 204.44C158.598 204.973 157.838 205.747 157.252 206.76C156.692 207.747 156.412 208.933 156.412 210.32C156.412 211.68 156.692 212.867 157.252 213.88C157.838 214.893 158.598 215.667 159.532 216.2C160.492 216.733 161.572 217 162.772 217ZM169.252 221V215.96L169.452 210.28L169.052 204.6V191.32H174.012V221H169.252ZM25.08 270.28C22.84 270.28 20.84 269.813 19.08 268.88C17.3467 267.92 15.9867 266.613 15 264.96C14.0133 263.307 13.52 261.427 13.52 259.32C13.52 257.187 14.0133 255.307 15 253.68C15.9867 252.027 17.3467 250.733 19.08 249.8C20.84 248.867 22.84 248.4 25.08 248.4C27.16 248.4 28.9867 248.827 30.56 249.68C32.16 250.507 33.3733 251.733 34.2 253.36L30.36 255.6C29.72 254.587 28.9333 253.84 28 253.36C27.0933 252.88 26.1067 252.64 25.04 252.64C23.8133 252.64 22.7067 252.907 21.72 253.44C20.7333 253.973 19.96 254.747 19.4 255.76C18.84 256.747 18.56 257.933 18.56 259.32C18.56 260.707 18.84 261.907 19.4 262.92C19.96 263.907 20.7333 264.667 21.72 265.2C22.7067 265.733 23.8133 266 25.04 266C26.1067 266 27.0933 265.76 28 265.28C28.9333 264.8 29.72 264.053 30.36 263.04L34.2 265.28C33.3733 266.88 32.16 268.12 30.56 269C28.9867 269.853 27.16 270.28 25.08 270.28ZM47.8097 270.28C45.623 270.28 43.6764 269.813 41.9697 268.88C40.263 267.92 38.9164 266.613 37.9297 264.96C36.943 263.307 36.4497 261.427 36.4497 259.32C36.4497 257.187 36.943 255.307 37.9297 253.68C38.9164 252.027 40.263 250.733 41.9697 249.8C43.6764 248.867 45.623 248.4 47.8097 248.4C50.023 248.4 51.983 248.867 53.6897 249.8C55.423 250.733 56.7697 252.013 57.7297 253.64C58.7164 255.267 59.2097 257.16 59.2097 259.32C59.2097 261.427 58.7164 263.307 57.7297 264.96C56.7697 266.613 55.423 267.92 53.6897 268.88C51.983 269.813 50.023 270.28 47.8097 270.28ZM47.8097 266C49.0364 266 50.1297 265.733 51.0897 265.2C52.0497 264.667 52.7964 263.893 53.3297 262.88C53.8897 261.867 54.1697 260.68 54.1697 259.32C54.1697 257.933 53.8897 256.747 53.3297 255.76C52.7964 254.747 52.0497 253.973 51.0897 253.44C50.1297 252.907 49.0497 252.64 47.8497 252.64C46.623 252.64 45.5297 252.907 44.5697 253.44C43.6364 253.973 42.8897 254.747 42.3297 255.76C41.7697 256.747 41.4897 257.933 41.4897 259.32C41.4897 260.68 41.7697 261.867 42.3297 262.88C42.8897 263.893 43.6364 264.667 44.5697 265.2C45.5297 265.733 46.6097 266 47.8097 266ZM90.9509 248.4C92.6576 248.4 94.1643 248.733 95.4709 249.4C96.8043 250.067 97.8443 251.093 98.5909 252.48C99.3376 253.84 99.7109 255.6 99.7109 257.76V270H94.7109V258.4C94.7109 256.507 94.2976 255.093 93.4709 254.16C92.6443 253.227 91.4576 252.76 89.9109 252.76C88.8176 252.76 87.8443 253 86.9909 253.48C86.1643 253.96 85.5109 254.667 85.0309 255.6C84.5776 256.533 84.3509 257.72 84.3509 259.16V270H79.3509V258.4C79.3509 256.507 78.9376 255.093 78.1109 254.16C77.2843 253.227 76.0976 252.76 74.5509 252.76C73.4576 252.76 72.4843 253 71.6309 253.48C70.8043 253.96 70.1509 254.667 69.6709 255.6C69.2176 256.533 68.9909 257.72 68.9909 259.16V270H63.9909V248.64H68.7509V254.32L67.9109 252.64C68.6309 251.253 69.6709 250.2 71.0309 249.48C72.4176 248.76 73.9909 248.4 75.7509 248.4C77.7509 248.4 79.4843 248.893 80.9509 249.88C82.4443 250.867 83.4309 252.36 83.9109 254.36L81.9509 253.68C82.6443 252.08 83.7909 250.8 85.3909 249.84C86.9909 248.88 88.8443 248.4 90.9509 248.4ZM117.94 270.28C116.207 270.28 114.62 269.88 113.18 269.08C111.767 268.28 110.634 267.08 109.78 265.48C108.954 263.853 108.54 261.8 108.54 259.32C108.54 256.813 108.94 254.76 109.74 253.16C110.567 251.56 111.687 250.373 113.1 249.6C114.514 248.8 116.127 248.4 117.94 248.4C120.047 248.4 121.9 248.853 123.5 249.76C125.127 250.667 126.407 251.933 127.34 253.56C128.3 255.187 128.78 257.107 128.78 259.32C128.78 261.533 128.3 263.467 127.34 265.12C126.407 266.747 125.127 268.013 123.5 268.92C121.9 269.827 120.047 270.28 117.94 270.28ZM106.1 277.76V248.64H110.86V253.68L110.7 259.36L111.1 265.04V277.76H106.1ZM117.38 266C118.58 266 119.647 265.733 120.58 265.2C121.54 264.667 122.3 263.893 122.86 262.88C123.42 261.867 123.7 260.68 123.7 259.32C123.7 257.933 123.42 256.747 122.86 255.76C122.3 254.747 121.54 253.973 120.58 253.44C119.647 252.907 118.58 252.64 117.38 252.64C116.18 252.64 115.1 252.907 114.14 253.44C113.18 253.973 112.42 254.747 111.86 255.76C111.3 256.747 111.02 257.933 111.02 259.32C111.02 260.68 111.3 261.867 111.86 262.88C112.42 263.893 113.18 264.667 114.14 265.2C115.1 265.733 116.18 266 117.38 266ZM142.562 270.28C140.749 270.28 139.149 269.947 137.762 269.28C136.376 268.587 135.296 267.547 134.522 266.16C133.749 264.747 133.362 262.973 133.362 260.84V248.64H138.362V260.16C138.362 262.08 138.789 263.52 139.642 264.48C140.522 265.413 141.762 265.88 143.362 265.88C144.536 265.88 145.549 265.64 146.402 265.16C147.282 264.68 147.962 263.96 148.442 263C148.949 262.04 149.202 260.853 149.202 259.44V248.64H154.202V270H149.442V264.24L150.282 266C149.562 267.387 148.509 268.453 147.122 269.2C145.736 269.92 144.216 270.28 142.562 270.28ZM168.789 270.28C166.442 270.28 164.629 269.68 163.349 268.48C162.069 267.253 161.429 265.453 161.429 263.08V243.92H166.429V262.96C166.429 263.973 166.682 264.76 167.189 265.32C167.722 265.88 168.455 266.16 169.389 266.16C170.509 266.16 171.442 265.867 172.189 265.28L173.589 268.84C173.002 269.32 172.282 269.68 171.429 269.92C170.575 270.16 169.695 270.28 168.789 270.28ZM157.909 252.8V248.8H172.149V252.8H157.909ZM177.702 270V248.64H182.702V270H177.702ZM180.222 245.12C179.289 245.12 178.515 244.827 177.902 244.24C177.315 243.653 177.022 242.947 177.022 242.12C177.022 241.267 177.315 240.56 177.902 240C178.515 239.413 179.289 239.12 180.222 239.12C181.155 239.12 181.915 239.4 182.502 239.96C183.115 240.493 183.422 241.173 183.422 242C183.422 242.88 183.129 243.627 182.542 244.24C181.955 244.827 181.182 245.12 180.222 245.12ZM201.384 248.4C203.091 248.4 204.611 248.733 205.944 249.4C207.304 250.067 208.371 251.093 209.144 252.48C209.918 253.84 210.304 255.6 210.304 257.76V270H205.304V258.4C205.304 256.507 204.851 255.093 203.944 254.16C203.064 253.227 201.824 252.76 200.224 252.76C199.051 252.76 198.011 253 197.104 253.48C196.198 253.96 195.491 254.68 194.984 255.64C194.504 256.573 194.264 257.76 194.264 259.2V270H189.264V248.64H194.024V254.4L193.184 252.64C193.931 251.28 195.011 250.24 196.424 249.52C197.864 248.773 199.518 248.4 201.384 248.4ZM226.366 278.04C224.393 278.04 222.46 277.773 220.566 277.24C218.7 276.733 217.166 275.987 215.966 275L218.206 271.24C219.14 272.013 220.313 272.627 221.726 273.08C223.166 273.56 224.62 273.8 226.086 273.8C228.433 273.8 230.153 273.253 231.246 272.16C232.34 271.093 232.886 269.48 232.886 267.32V263.52L233.286 258.68L233.126 253.84V248.64H237.886V266.76C237.886 270.627 236.9 273.467 234.926 275.28C232.953 277.12 230.1 278.04 226.366 278.04ZM225.726 269.04C223.7 269.04 221.86 268.613 220.206 267.76C218.58 266.88 217.286 265.667 216.326 264.12C215.393 262.573 214.926 260.76 214.926 258.68C214.926 256.627 215.393 254.827 216.326 253.28C217.286 251.733 218.58 250.533 220.206 249.68C221.86 248.827 223.7 248.4 225.726 248.4C227.54 248.4 229.166 248.76 230.606 249.48C232.046 250.2 233.193 251.32 234.046 252.84C234.926 254.36 235.366 256.307 235.366 258.68C235.366 261.053 234.926 263.013 234.046 264.56C233.193 266.08 232.046 267.213 230.606 267.96C229.166 268.68 227.54 269.04 225.726 269.04ZM226.486 264.8C227.74 264.8 228.86 264.547 229.846 264.04C230.833 263.507 231.593 262.787 232.126 261.88C232.686 260.947 232.966 259.88 232.966 258.68C232.966 257.48 232.686 256.427 232.126 255.52C231.593 254.587 230.833 253.88 229.846 253.4C228.86 252.893 227.74 252.64 226.486 252.64C225.233 252.64 224.1 252.893 223.086 253.4C222.1 253.88 221.326 254.587 220.766 255.52C220.233 256.427 219.966 257.48 219.966 258.68C219.966 259.88 220.233 260.947 220.766 261.88C221.326 262.787 222.1 263.507 223.086 264.04C224.1 264.547 225.233 264.8 226.486 264.8Z" fill="white"/>
</svg>
