<svg width="120" height="100" viewBox="0 0 238 213" fill="none" xmlns="http://www.w3.org/2000/svg">
<path d="M178.463 87.1237C178.47 86.924 178.5 86.7309 178.5 86.5312C178.5 57.1239 151.859 33.2812 119 33.2812C90.6334 33.2812 66.9524 51.0601 60.9875 74.8296C38.7345 80.1279 22.3125 98.2263 22.3125 119.812C22.3125 145.546 45.6216 166.406 74.375 166.406H171.062C195.71 166.406 215.688 148.528 215.688 126.469C215.688 106.673 199.578 90.2854 178.463 87.1237Z" fill="white"/>
<path d="M37.1875 119.812C37.1875 98.2263 53.6095 80.1279 75.8625 74.8296C81.2993 53.1701 101.455 36.5362 126.445 33.7405C123.998 33.4676 121.529 33.2812 119 33.2812C90.6334 33.2812 66.9524 51.0601 60.9875 74.8296C38.7345 80.1279 22.3125 98.2263 22.3125 119.812C22.3125 145.546 45.6216 166.406 74.375 166.406H89.25C60.4966 166.406 37.1875 145.546 37.1875 119.812Z" fill="#96527A"/>
<path d="M178.463 87.1237C178.47 86.924 178.5 86.7309 178.5 86.5312C178.5 57.1239 151.859 33.2812 119 33.2812C98.8147 33.2812 81.0391 42.3138 70.2919 56.0722C79.8937 50.1016 91.5408 46.5937 104.125 46.5937C134.418 46.5937 159.743 66.9219 163.194 93.6335C163.707 97.6206 166.838 100.829 171.063 102.167C189.024 107.845 201.713 123.487 200.761 141.698C200.389 148.754 197.845 155.244 193.777 160.802C206.882 153.839 215.688 141.093 215.688 126.469C215.688 106.673 199.578 90.2854 178.463 87.1237Z" fill="#CD6889"/>
<path d="M178.463 87.1237C178.47 86.924 178.5 86.7309 178.5 86.5312C178.5 57.1239 151.859 33.2812 119 33.2812C90.6334 33.2812 66.9524 51.0601 60.9875 74.8296C38.7345 80.1279 22.3125 98.2263 22.3125 119.812C22.3125 145.546 45.6216 166.406 74.375 166.406H171.062C195.71 166.406 215.688 148.528 215.688 126.469C215.688 106.673 199.578 90.2854 178.463 87.1237Z" stroke="white" stroke-width="2" stroke-miterlimit="10" stroke-linecap="round" stroke-linejoin="round"/>
<path d="M76.5541 95.1377C79.4622 92.5351 84.1627 92.5351 87.0708 95.1377L101.946 108.45C104.073 110.354 104.713 113.216 103.56 115.706C102.414 118.195 99.6922 119.812 96.6874 119.812H90.3061C93.6306 131.268 105.174 139.781 119 139.781C123.135 139.781 127.137 139.036 130.893 137.571C134.648 136.08 139.037 137.645 140.68 141.006C142.331 144.374 140.606 148.301 136.843 149.766C131.205 151.975 125.195 153.094 119 153.094C96.9329 153.094 78.6069 138.67 75.0443 119.812H66.9374C63.9327 119.812 61.2106 118.195 60.0652 115.706C58.9124 113.216 59.552 110.354 61.6791 108.45L76.5541 95.1377Z" fill="#F08A5D"/>
<path d="M134.44 110.607C135.586 108.124 138.308 106.5 141.312 106.5H147.694C144.369 95.0512 132.826 86.5312 119 86.5312C114.85 86.5312 110.841 87.2768 107.085 88.7478C103.307 90.2122 98.9336 88.6812 97.2899 85.3198C95.6388 81.9517 97.3568 78.0246 101.12 76.5535C106.765 74.3437 112.79 73.2188 119 73.2188C141.067 73.2188 159.393 87.6428 162.956 106.5H171.062C174.067 106.5 176.789 108.124 177.935 110.607C179.088 113.096 178.448 115.959 176.321 117.862L161.446 131.175C159.995 132.473 158.091 133.125 156.187 133.125C154.283 133.125 152.379 132.473 150.929 131.175L136.054 117.862C133.927 115.959 133.287 113.096 134.44 110.607Z" fill="#F08A5D"/>
<path d="M83.3297 98.2995L98.2047 111.612C100.332 113.516 100.971 116.378 99.8187 118.867C99.7592 118.994 99.6476 119.094 99.5807 119.22C101.328 118.548 102.801 117.35 103.56 115.706C104.713 113.216 104.073 110.354 101.946 108.45L87.0708 95.1377C84.1627 92.5351 79.4622 92.5351 76.5542 95.1377L73.4379 97.9267C76.3534 95.7967 80.6076 95.8633 83.3297 98.2995Z" fill="#B46846"/>
<path d="M140.68 141.006C139.029 137.645 134.641 136.087 130.893 137.571C127.137 139.036 123.135 139.781 119 139.781C106.49 139.781 95.9214 132.779 91.5407 122.974H86.5651C89.8896 134.43 101.433 142.943 115.259 142.943C119.394 142.943 123.396 142.197 127.152 140.733C130.907 139.242 135.296 140.806 136.939 144.168C137.876 146.078 137.631 148.122 136.642 149.839C136.709 149.812 136.776 149.799 136.843 149.772C140.606 148.295 142.331 144.367 140.68 141.006Z" fill="#B46846"/>
<path d="M177.935 110.607C176.789 108.124 174.067 106.5 171.063 106.5H162.956C159.401 87.6428 141.075 73.2188 119 73.2188C112.79 73.2188 106.765 74.3437 101.12 76.5535C98.7328 77.4921 97.3048 79.4423 96.9032 81.579C97.0891 81.4925 97.2081 81.3394 97.4015 81.2662C103.054 79.0496 109.071 77.9314 115.281 77.9314C137.348 77.9314 155.674 92.3555 159.237 111.213H167.344C170.349 111.213 173.071 112.837 174.216 115.32C174.841 116.671 174.9 118.115 174.521 119.473L176.328 117.856C178.448 115.959 179.088 113.096 177.935 110.607Z" fill="#B46846"/>
</svg>
