<svg width="80" height="90" viewBox="0 0 241 264" fill="none" xmlns="http://www.w3.org/2000/svg">
<path d="M178.463 87.1237C178.47 86.924 178.5 86.7309 178.5 86.5312C178.5 57.1239 151.859 33.2812 119 33.2812C90.6334 33.2812 66.9524 51.0601 60.9875 74.8296C38.7345 80.1279 22.3125 98.2263 22.3125 119.812C22.3125 145.546 45.6216 166.406 74.375 166.406H171.062C195.71 166.406 215.688 148.528 215.688 126.469C215.688 106.673 199.578 90.2854 178.463 87.1237Z" fill="white"/>
<path d="M37.1875 119.812C37.1875 98.2263 53.6095 80.1279 75.8625 74.8296C81.2993 53.1701 101.455 36.5362 126.445 33.7405C123.998 33.4676 121.529 33.2812 119 33.2812C90.6334 33.2812 66.9524 51.0601 60.9875 74.8296C38.7345 80.1279 22.3125 98.2263 22.3125 119.812C22.3125 145.546 45.6216 166.406 74.375 166.406H89.25C60.4966 166.406 37.1875 145.546 37.1875 119.812Z" fill="#96527A"/>
<path d="M178.463 87.1236C178.47 86.924 178.5 86.7309 178.5 86.5312C178.5 57.1239 151.859 33.2812 119 33.2812C98.8147 33.2812 81.0391 42.3138 70.2919 56.0722C79.8937 50.1016 91.5408 46.5937 104.125 46.5937C134.418 46.5937 159.743 66.9219 163.194 93.6335C163.707 97.6206 166.838 100.829 171.063 102.167C189.024 107.845 201.713 123.487 200.76 141.698C200.389 148.754 197.845 155.244 193.777 160.802C206.882 153.839 215.688 141.093 215.688 126.469C215.688 106.673 199.578 90.2854 178.463 87.1236Z" fill="#CD6889"/>
<path d="M178.463 87.1237C178.47 86.924 178.5 86.7309 178.5 86.5312C178.5 57.1239 151.859 33.2812 119 33.2812C90.6334 33.2812 66.9524 51.0601 60.9875 74.8296C38.7345 80.1279 22.3125 98.2263 22.3125 119.812C22.3125 145.546 45.6216 166.406 74.375 166.406H171.062C195.71 166.406 215.688 148.528 215.688 126.469C215.688 106.673 199.578 90.2854 178.463 87.1237Z" stroke="white" stroke-width="2" stroke-miterlimit="10" stroke-linecap="round" stroke-linejoin="round"/>
<path d="M76.5541 95.1377C79.4622 92.5351 84.1627 92.5351 87.0708 95.1377L101.946 108.45C104.073 110.354 104.713 113.216 103.56 115.706C102.414 118.195 99.6922 119.812 96.6874 119.812H90.3061C93.6306 131.268 105.174 139.781 119 139.781C123.135 139.781 127.137 139.036 130.893 137.571C134.648 136.08 139.037 137.645 140.68 141.006C142.331 144.374 140.606 148.301 136.843 149.766C131.205 151.975 125.195 153.094 119 153.094C96.9329 153.094 78.6069 138.67 75.0443 119.812H66.9374C63.9327 119.812 61.2106 118.195 60.0652 115.706C58.9124 113.216 59.552 110.354 61.6791 108.45L76.5541 95.1377Z" fill="#F08A5D"/>
<path d="M134.44 110.607C135.586 108.124 138.308 106.5 141.312 106.5H147.694C144.369 95.0513 132.826 86.5312 119 86.5312C114.85 86.5312 110.841 87.2768 107.085 88.7478C103.307 90.2122 98.9336 88.6812 97.2899 85.3198C95.6388 81.9517 97.3568 78.0246 101.12 76.5535C106.765 74.3437 112.79 73.2188 119 73.2188C141.067 73.2188 159.393 87.6428 162.956 106.5H171.062C174.067 106.5 176.789 108.124 177.935 110.607C179.088 113.096 178.448 115.959 176.321 117.862L161.446 131.175C159.995 132.473 158.091 133.125 156.187 133.125C154.283 133.125 152.379 132.473 150.929 131.175L136.054 117.862C133.927 115.959 133.287 113.096 134.44 110.607Z" fill="#F08A5D"/>
<path d="M83.3297 98.2995L98.2047 111.612C100.332 113.516 100.971 116.378 99.8187 118.867C99.7592 118.994 99.6476 119.094 99.5807 119.22C101.328 118.548 102.801 117.35 103.56 115.706C104.713 113.216 104.073 110.354 101.946 108.45L87.0708 95.1377C84.1627 92.5351 79.4622 92.5351 76.5542 95.1377L73.4379 97.9267C76.3534 95.7967 80.6076 95.8633 83.3297 98.2995Z" fill="#B46846"/>
<path d="M140.68 141.006C139.029 137.644 134.641 136.087 130.893 137.571C127.137 139.036 123.135 139.781 119 139.781C106.49 139.781 95.9214 132.779 91.5407 122.974H86.5651C89.8896 134.43 101.433 142.943 115.259 142.943C119.394 142.943 123.396 142.197 127.152 140.733C130.907 139.242 135.296 140.806 136.939 144.168C137.876 146.078 137.631 148.121 136.642 149.839C136.709 149.812 136.776 149.799 136.843 149.772C140.606 148.294 142.331 144.367 140.68 141.006Z" fill="#B46846"/>
<path d="M177.935 110.607C176.789 108.124 174.067 106.5 171.063 106.5H162.956C159.401 87.6428 141.075 73.2188 119 73.2188C112.79 73.2188 106.765 74.3437 101.12 76.5535C98.7328 77.4921 97.3048 79.4423 96.9032 81.579C97.0891 81.4925 97.2081 81.3394 97.4015 81.2662C103.054 79.0496 109.071 77.9314 115.281 77.9314C137.348 77.9314 155.674 92.3555 159.237 111.213H167.344C170.349 111.213 173.071 112.837 174.216 115.32C174.841 116.671 174.9 118.115 174.521 119.473L176.328 117.856C178.448 115.959 179.088 113.096 177.935 110.607Z" fill="#B46846"/>
<path d="M71.9388 205.4C69.8054 205.4 67.8188 205.053 65.9788 204.36C64.1654 203.64 62.5788 202.64 61.2188 201.36C59.8854 200.053 58.8454 198.52 58.0988 196.76C57.3521 195 56.9788 193.08 56.9788 191C56.9788 188.92 57.3521 187 58.0988 185.24C58.8454 183.48 59.8988 181.96 61.2588 180.68C62.6188 179.373 64.2054 178.373 66.0188 177.68C67.8321 176.96 69.8188 176.6 71.9788 176.6C74.2721 176.6 76.3654 177 78.2588 177.8C80.1521 178.573 81.7521 179.733 83.0588 181.28L79.6988 184.44C78.6854 183.347 77.5521 182.533 76.2988 182C75.0454 181.44 73.6854 181.16 72.2188 181.16C70.7521 181.16 69.4054 181.4 68.1788 181.88C66.9788 182.36 65.9254 183.04 65.0188 183.92C64.1388 184.8 63.4454 185.84 62.9388 187.04C62.4588 188.24 62.2188 189.56 62.2188 191C62.2188 192.44 62.4588 193.76 62.9388 194.96C63.4454 196.16 64.1388 197.2 65.0188 198.08C65.9254 198.96 66.9788 199.64 68.1788 200.12C69.4054 200.6 70.7521 200.84 72.2188 200.84C73.6854 200.84 75.0454 200.573 76.2988 200.04C77.5521 199.48 78.6854 198.64 79.6988 197.52L83.0588 200.72C81.7521 202.24 80.1521 203.4 78.2588 204.2C76.3654 205 74.2588 205.4 71.9388 205.4ZM87.5613 205V175.32H92.5613V205H87.5613ZM108.724 205.28C106.537 205.28 104.59 204.813 102.884 203.88C101.177 202.92 99.8304 201.613 98.8438 199.96C97.8571 198.307 97.3638 196.427 97.3638 194.32C97.3638 192.187 97.8571 190.307 98.8438 188.68C99.8304 187.027 101.177 185.733 102.884 184.8C104.59 183.867 106.537 183.4 108.724 183.4C110.937 183.4 112.897 183.867 114.604 184.8C116.337 185.733 117.684 187.013 118.644 188.64C119.63 190.267 120.124 192.16 120.124 194.32C120.124 196.427 119.63 198.307 118.644 199.96C117.684 201.613 116.337 202.92 114.604 203.88C112.897 204.813 110.937 205.28 108.724 205.28ZM108.724 201C109.95 201 111.044 200.733 112.004 200.2C112.964 199.667 113.71 198.893 114.244 197.88C114.804 196.867 115.084 195.68 115.084 194.32C115.084 192.933 114.804 191.747 114.244 190.76C113.71 189.747 112.964 188.973 112.004 188.44C111.044 187.907 109.964 187.64 108.764 187.64C107.537 187.64 106.444 187.907 105.484 188.44C104.55 188.973 103.804 189.747 103.244 190.76C102.684 191.747 102.404 192.933 102.404 194.32C102.404 195.68 102.684 196.867 103.244 197.88C103.804 198.893 104.55 199.667 105.484 200.2C106.444 200.733 107.524 201 108.724 201ZM133.945 205.28C132.132 205.28 130.532 204.947 129.145 204.28C127.758 203.587 126.678 202.547 125.905 201.16C125.132 199.747 124.745 197.973 124.745 195.84V183.64H129.745V195.16C129.745 197.08 130.172 198.52 131.025 199.48C131.905 200.413 133.145 200.88 134.745 200.88C135.918 200.88 136.932 200.64 137.785 200.16C138.665 199.68 139.345 198.96 139.825 198C140.332 197.04 140.585 195.853 140.585 194.44V183.64H145.585V205H140.825V199.24L141.665 201C140.945 202.387 139.892 203.453 138.505 204.2C137.118 204.92 135.598 205.28 133.945 205.28ZM161.172 205.28C159.118 205.28 157.265 204.827 155.612 203.92C153.985 202.987 152.705 201.707 151.772 200.08C150.838 198.453 150.372 196.533 150.372 194.32C150.372 192.107 150.838 190.187 151.772 188.56C152.705 186.933 153.985 185.667 155.612 184.76C157.265 183.853 159.118 183.4 161.172 183.4C162.958 183.4 164.558 183.8 165.972 184.6C167.385 185.373 168.505 186.56 169.332 188.16C170.158 189.76 170.572 191.813 170.572 194.32C170.572 196.8 170.172 198.853 169.372 200.48C168.572 202.08 167.465 203.28 166.052 204.08C164.638 204.88 163.012 205.28 161.172 205.28ZM161.772 201C162.972 201 164.038 200.733 164.972 200.2C165.932 199.667 166.692 198.893 167.252 197.88C167.838 196.867 168.132 195.68 168.132 194.32C168.132 192.933 167.838 191.747 167.252 190.76C166.692 189.747 165.932 188.973 164.972 188.44C164.038 187.907 162.972 187.64 161.772 187.64C160.572 187.64 159.492 187.907 158.532 188.44C157.598 188.973 156.838 189.747 156.252 190.76C155.692 191.747 155.412 192.933 155.412 194.32C155.412 195.68 155.692 196.867 156.252 197.88C156.838 198.893 157.598 199.667 158.532 200.2C159.492 200.733 160.572 201 161.772 201ZM168.252 205V199.96L168.452 194.28L168.052 188.6V175.32H173.012V205H168.252ZM24.08 254.28C21.84 254.28 19.84 253.813 18.08 252.88C16.3467 251.92 14.9867 250.613 14 248.96C13.0133 247.307 12.52 245.427 12.52 243.32C12.52 241.187 13.0133 239.307 14 237.68C14.9867 236.027 16.3467 234.733 18.08 233.8C19.84 232.867 21.84 232.4 24.08 232.4C26.16 232.4 27.9867 232.827 29.56 233.68C31.16 234.507 32.3733 235.733 33.2 237.36L29.36 239.6C28.72 238.587 27.9333 237.84 27 237.36C26.0933 236.88 25.1067 236.64 24.04 236.64C22.8133 236.64 21.7067 236.907 20.72 237.44C19.7333 237.973 18.96 238.747 18.4 239.76C17.84 240.747 17.56 241.933 17.56 243.32C17.56 244.707 17.84 245.907 18.4 246.92C18.96 247.907 19.7333 248.667 20.72 249.2C21.7067 249.733 22.8133 250 24.04 250C25.1067 250 26.0933 249.76 27 249.28C27.9333 248.8 28.72 248.053 29.36 247.04L33.2 249.28C32.3733 250.88 31.16 252.12 29.56 253C27.9867 253.853 26.16 254.28 24.08 254.28ZM46.8097 254.28C44.623 254.28 42.6764 253.813 40.9697 252.88C39.263 251.92 37.9164 250.613 36.9297 248.96C35.943 247.307 35.4497 245.427 35.4497 243.32C35.4497 241.187 35.943 239.307 36.9297 237.68C37.9164 236.027 39.263 234.733 40.9697 233.8C42.6764 232.867 44.623 232.4 46.8097 232.4C49.023 232.4 50.983 232.867 52.6897 233.8C54.423 234.733 55.7697 236.013 56.7297 237.64C57.7164 239.267 58.2097 241.16 58.2097 243.32C58.2097 245.427 57.7164 247.307 56.7297 248.96C55.7697 250.613 54.423 251.92 52.6897 252.88C50.983 253.813 49.023 254.28 46.8097 254.28ZM46.8097 250C48.0364 250 49.1297 249.733 50.0897 249.2C51.0497 248.667 51.7964 247.893 52.3297 246.88C52.8897 245.867 53.1697 244.68 53.1697 243.32C53.1697 241.933 52.8897 240.747 52.3297 239.76C51.7964 238.747 51.0497 237.973 50.0897 237.44C49.1297 236.907 48.0497 236.64 46.8497 236.64C45.623 236.64 44.5297 236.907 43.5697 237.44C42.6364 237.973 41.8897 238.747 41.3297 239.76C40.7697 240.747 40.4897 241.933 40.4897 243.32C40.4897 244.68 40.7697 245.867 41.3297 246.88C41.8897 247.893 42.6364 248.667 43.5697 249.2C44.5297 249.733 45.6097 250 46.8097 250ZM89.9509 232.4C91.6576 232.4 93.1643 232.733 94.4709 233.4C95.8043 234.067 96.8443 235.093 97.5909 236.48C98.3376 237.84 98.7109 239.6 98.7109 241.76V254H93.7109V242.4C93.7109 240.507 93.2976 239.093 92.4709 238.16C91.6443 237.227 90.4576 236.76 88.9109 236.76C87.8176 236.76 86.8443 237 85.9909 237.48C85.1643 237.96 84.5109 238.667 84.0309 239.6C83.5776 240.533 83.3509 241.72 83.3509 243.16V254H78.3509V242.4C78.3509 240.507 77.9376 239.093 77.1109 238.16C76.2843 237.227 75.0976 236.76 73.5509 236.76C72.4576 236.76 71.4843 237 70.6309 237.48C69.8043 237.96 69.1509 238.667 68.6709 239.6C68.2176 240.533 67.9909 241.72 67.9909 243.16V254H62.9909V232.64H67.7509V238.32L66.9109 236.64C67.6309 235.253 68.6709 234.2 70.0309 233.48C71.4176 232.76 72.9909 232.4 74.7509 232.4C76.7509 232.4 78.4843 232.893 79.9509 233.88C81.4443 234.867 82.4309 236.36 82.9109 238.36L80.9509 237.68C81.6443 236.08 82.7909 234.8 84.3909 233.84C85.9909 232.88 87.8443 232.4 89.9509 232.4ZM116.94 254.28C115.207 254.28 113.62 253.88 112.18 253.08C110.767 252.28 109.634 251.08 108.78 249.48C107.954 247.853 107.54 245.8 107.54 243.32C107.54 240.813 107.94 238.76 108.74 237.16C109.567 235.56 110.687 234.373 112.1 233.6C113.514 232.8 115.127 232.4 116.94 232.4C119.047 232.4 120.9 232.853 122.5 233.76C124.127 234.667 125.407 235.933 126.34 237.56C127.3 239.187 127.78 241.107 127.78 243.32C127.78 245.533 127.3 247.467 126.34 249.12C125.407 250.747 124.127 252.013 122.5 252.92C120.9 253.827 119.047 254.28 116.94 254.28ZM105.1 261.76V232.64H109.86V237.68L109.7 243.36L110.1 249.04V261.76H105.1ZM116.38 250C117.58 250 118.647 249.733 119.58 249.2C120.54 248.667 121.3 247.893 121.86 246.88C122.42 245.867 122.7 244.68 122.7 243.32C122.7 241.933 122.42 240.747 121.86 239.76C121.3 238.747 120.54 237.973 119.58 237.44C118.647 236.907 117.58 236.64 116.38 236.64C115.18 236.64 114.1 236.907 113.14 237.44C112.18 237.973 111.42 238.747 110.86 239.76C110.3 240.747 110.02 241.933 110.02 243.32C110.02 244.68 110.3 245.867 110.86 246.88C111.42 247.893 112.18 248.667 113.14 249.2C114.1 249.733 115.18 250 116.38 250ZM141.562 254.28C139.749 254.28 138.149 253.947 136.762 253.28C135.376 252.587 134.296 251.547 133.522 250.16C132.749 248.747 132.362 246.973 132.362 244.84V232.64H137.362V244.16C137.362 246.08 137.789 247.52 138.642 248.48C139.522 249.413 140.762 249.88 142.362 249.88C143.536 249.88 144.549 249.64 145.402 249.16C146.282 248.68 146.962 247.96 147.442 247C147.949 246.04 148.202 244.853 148.202 243.44V232.64H153.202V254H148.442V248.24L149.282 250C148.562 251.387 147.509 252.453 146.122 253.2C144.736 253.92 143.216 254.28 141.562 254.28ZM167.789 254.28C165.442 254.28 163.629 253.68 162.349 252.48C161.069 251.253 160.429 249.453 160.429 247.08V227.92H165.429V246.96C165.429 247.973 165.682 248.76 166.189 249.32C166.722 249.88 167.455 250.16 168.389 250.16C169.509 250.16 170.442 249.867 171.189 249.28L172.589 252.84C172.002 253.32 171.282 253.68 170.429 253.92C169.575 254.16 168.695 254.28 167.789 254.28ZM156.909 236.8V232.8H171.149V236.8H156.909ZM176.702 254V232.64H181.702V254H176.702ZM179.222 229.12C178.289 229.12 177.515 228.827 176.902 228.24C176.315 227.653 176.022 226.947 176.022 226.12C176.022 225.267 176.315 224.56 176.902 224C177.515 223.413 178.289 223.12 179.222 223.12C180.155 223.12 180.915 223.4 181.502 223.96C182.115 224.493 182.422 225.173 182.422 226C182.422 226.88 182.129 227.627 181.542 228.24C180.955 228.827 180.182 229.12 179.222 229.12ZM200.384 232.4C202.091 232.4 203.611 232.733 204.944 233.4C206.304 234.067 207.371 235.093 208.144 236.48C208.918 237.84 209.304 239.6 209.304 241.76V254H204.304V242.4C204.304 240.507 203.851 239.093 202.944 238.16C202.064 237.227 200.824 236.76 199.224 236.76C198.051 236.76 197.011 237 196.104 237.48C195.198 237.96 194.491 238.68 193.984 239.64C193.504 240.573 193.264 241.76 193.264 243.2V254H188.264V232.64H193.024V238.4L192.184 236.64C192.931 235.28 194.011 234.24 195.424 233.52C196.864 232.773 198.518 232.4 200.384 232.4ZM225.366 262.04C223.393 262.04 221.46 261.773 219.566 261.24C217.7 260.733 216.166 259.987 214.966 259L217.206 255.24C218.14 256.013 219.313 256.627 220.726 257.08C222.166 257.56 223.62 257.8 225.086 257.8C227.433 257.8 229.153 257.253 230.246 256.16C231.34 255.093 231.886 253.48 231.886 251.32V247.52L232.286 242.68L232.126 237.84V232.64H236.886V250.76C236.886 254.627 235.9 257.467 233.926 259.28C231.953 261.12 229.1 262.04 225.366 262.04ZM224.726 253.04C222.7 253.04 220.86 252.613 219.206 251.76C217.58 250.88 216.286 249.667 215.326 248.12C214.393 246.573 213.926 244.76 213.926 242.68C213.926 240.627 214.393 238.827 215.326 237.28C216.286 235.733 217.58 234.533 219.206 233.68C220.86 232.827 222.7 232.4 224.726 232.4C226.54 232.4 228.166 232.76 229.606 233.48C231.046 234.2 232.193 235.32 233.046 236.84C233.926 238.36 234.366 240.307 234.366 242.68C234.366 245.053 233.926 247.013 233.046 248.56C232.193 250.08 231.046 251.213 229.606 251.96C228.166 252.68 226.54 253.04 224.726 253.04ZM225.486 248.8C226.74 248.8 227.86 248.547 228.846 248.04C229.833 247.507 230.593 246.787 231.126 245.88C231.686 244.947 231.966 243.88 231.966 242.68C231.966 241.48 231.686 240.427 231.126 239.52C230.593 238.587 229.833 237.88 228.846 237.4C227.86 236.893 226.74 236.64 225.486 236.64C224.233 236.64 223.1 236.893 222.086 237.4C221.1 237.88 220.326 238.587 219.766 239.52C219.233 240.427 218.966 241.48 218.966 242.68C218.966 243.88 219.233 244.947 219.766 245.88C220.326 246.787 221.1 247.507 222.086 248.04C223.1 248.547 224.233 248.8 225.486 248.8Z" fill="white"/>
</svg>
