<svg width="90" height="90" viewBox="0 0 334 254" fill="none" xmlns="http://www.w3.org/2000/svg">
<path d="M3.76 194.923V166.923H16C19.04 166.923 21.7067 167.51 24 168.683C26.2933 169.857 28.08 171.483 29.36 173.563C30.64 175.643 31.28 178.097 31.28 180.923C31.28 183.723 30.64 186.177 29.36 188.283C28.08 190.363 26.2933 191.99 24 193.163C21.7067 194.337 19.04 194.923 16 194.923H3.76ZM8.96 190.523H15.76C17.8667 190.523 19.68 190.123 21.2 189.323C22.7467 188.523 23.9333 187.403 24.76 185.963C25.6133 184.523 26.04 182.843 26.04 180.923C26.04 178.977 25.6133 177.297 24.76 175.883C23.9333 174.443 22.7467 173.323 21.2 172.523C19.68 171.723 17.8667 171.323 15.76 171.323H8.96V190.523ZM46.3669 195.203C43.9935 195.203 41.9135 194.737 40.1269 193.803C38.3669 192.843 36.9935 191.537 36.0069 189.883C35.0469 188.23 34.5669 186.35 34.5669 184.243C34.5669 182.11 35.0335 180.23 35.9669 178.603C36.9269 176.95 38.2335 175.657 39.8869 174.723C41.5669 173.79 43.4735 173.323 45.6069 173.323C47.6869 173.323 49.5402 173.777 51.1669 174.683C52.7935 175.59 54.0735 176.87 55.0069 178.523C55.9402 180.177 56.4069 182.123 56.4069 184.363C56.4069 184.577 56.3935 184.817 56.3669 185.083C56.3669 185.35 56.3535 185.603 56.3269 185.843H38.5269V182.523H53.6869L51.7269 183.563C51.7535 182.337 51.5002 181.257 50.9669 180.323C50.4335 179.39 49.7002 178.657 48.7669 178.123C47.8602 177.59 46.8069 177.323 45.6069 177.323C44.3802 177.323 43.3002 177.59 42.3669 178.123C41.4602 178.657 40.7402 179.403 40.2069 180.363C39.7002 181.297 39.4469 182.403 39.4469 183.683V184.483C39.4469 185.763 39.7402 186.897 40.3269 187.883C40.9135 188.87 41.7402 189.63 42.8069 190.163C43.8735 190.697 45.1002 190.963 46.4869 190.963C47.6869 190.963 48.7669 190.777 49.7269 190.403C50.6869 190.03 51.5402 189.443 52.2869 188.643L54.9669 191.723C54.0069 192.843 52.7935 193.71 51.3269 194.323C49.8869 194.91 48.2335 195.203 46.3669 195.203ZM42.1269 170.643L47.5269 165.163H53.4069L46.4469 170.643H42.1269ZM66.4991 194.923L57.3391 173.563H62.5391L70.4191 192.403H67.8591L76.0191 173.563H80.8191L71.6591 194.923H66.4991ZM93.3981 195.203C91.0248 195.203 88.9448 194.737 87.1581 193.803C85.3981 192.843 84.0248 191.537 83.0381 189.883C82.0781 188.23 81.5981 186.35 81.5981 184.243C81.5981 182.11 82.0648 180.23 82.9981 178.603C83.9581 176.95 85.2648 175.657 86.9181 174.723C88.5981 173.79 90.5048 173.323 92.6381 173.323C94.7181 173.323 96.5715 173.777 98.1981 174.683C99.8248 175.59 101.105 176.87 102.038 178.523C102.971 180.177 103.438 182.123 103.438 184.363C103.438 184.577 103.425 184.817 103.398 185.083C103.398 185.35 103.385 185.603 103.358 185.843H85.5581V182.523H100.718L98.7581 183.563C98.7848 182.337 98.5315 181.257 97.9981 180.323C97.4648 179.39 96.7315 178.657 95.7981 178.123C94.8915 177.59 93.8381 177.323 92.6381 177.323C91.4115 177.323 90.3315 177.59 89.3981 178.123C88.4915 178.657 87.7715 179.403 87.2381 180.363C86.7315 181.297 86.4781 182.403 86.4781 183.683V184.483C86.4781 185.763 86.7715 186.897 87.3581 187.883C87.9448 188.87 88.7715 189.63 89.8381 190.163C90.9048 190.697 92.1315 190.963 93.5181 190.963C94.7181 190.963 95.7981 190.777 96.7581 190.403C97.7181 190.03 98.5715 189.443 99.3181 188.643L101.998 191.723C101.038 192.843 99.8248 193.71 98.3581 194.323C96.9181 194.91 95.2648 195.203 93.3981 195.203ZM108.241 194.923V165.243H113.241V194.923H108.241ZM129.403 195.203C127.217 195.203 125.27 194.737 123.563 193.803C121.857 192.843 120.51 191.537 119.523 189.883C118.537 188.23 118.043 186.35 118.043 184.243C118.043 182.11 118.537 180.23 119.523 178.603C120.51 176.95 121.857 175.657 123.563 174.723C125.27 173.79 127.217 173.323 129.403 173.323C131.617 173.323 133.577 173.79 135.283 174.723C137.017 175.657 138.363 176.937 139.323 178.563C140.31 180.19 140.803 182.083 140.803 184.243C140.803 186.35 140.31 188.23 139.323 189.883C138.363 191.537 137.017 192.843 135.283 193.803C133.577 194.737 131.617 195.203 129.403 195.203ZM129.403 190.923C130.63 190.923 131.723 190.657 132.683 190.123C133.643 189.59 134.39 188.817 134.923 187.803C135.483 186.79 135.763 185.603 135.763 184.243C135.763 182.857 135.483 181.67 134.923 180.683C134.39 179.67 133.643 178.897 132.683 178.363C131.723 177.83 130.643 177.563 129.443 177.563C128.217 177.563 127.123 177.83 126.163 178.363C125.23 178.897 124.483 179.67 123.923 180.683C123.363 181.67 123.083 182.857 123.083 184.243C123.083 185.603 123.363 186.79 123.923 187.803C124.483 188.817 125.23 189.59 126.163 190.123C127.123 190.657 128.203 190.923 129.403 190.923ZM157.425 195.203C155.691 195.203 154.105 194.803 152.665 194.003C151.251 193.203 150.118 192.003 149.265 190.403C148.438 188.777 148.025 186.723 148.025 184.243C148.025 181.737 148.425 179.683 149.225 178.083C150.051 176.483 151.171 175.297 152.585 174.523C153.998 173.723 155.611 173.323 157.425 173.323C159.531 173.323 161.385 173.777 162.985 174.683C164.611 175.59 165.891 176.857 166.825 178.483C167.785 180.11 168.265 182.03 168.265 184.243C168.265 186.457 167.785 188.39 166.825 190.043C165.891 191.67 164.611 192.937 162.985 193.843C161.385 194.75 159.531 195.203 157.425 195.203ZM145.585 202.683V173.563H150.345V178.603L150.185 184.283L150.585 189.963V202.683H145.585ZM156.865 190.923C158.065 190.923 159.131 190.657 160.065 190.123C161.025 189.59 161.785 188.817 162.345 187.803C162.905 186.79 163.185 185.603 163.185 184.243C163.185 182.857 162.905 181.67 162.345 180.683C161.785 179.67 161.025 178.897 160.065 178.363C159.131 177.83 158.065 177.563 156.865 177.563C155.665 177.563 154.585 177.83 153.625 178.363C152.665 178.897 151.905 179.67 151.345 180.683C150.785 181.67 150.505 182.857 150.505 184.243C150.505 185.603 150.785 186.79 151.345 187.803C151.905 188.817 152.665 189.59 153.625 190.123C154.585 190.657 155.665 190.923 156.865 190.923ZM184.847 195.203C183.113 195.203 181.527 194.803 180.087 194.003C178.673 193.203 177.54 192.003 176.687 190.403C175.86 188.777 175.447 186.723 175.447 184.243C175.447 181.737 175.847 179.683 176.647 178.083C177.473 176.483 178.593 175.297 180.007 174.523C181.42 173.723 183.033 173.323 184.847 173.323C186.953 173.323 188.807 173.777 190.407 174.683C192.033 175.59 193.313 176.857 194.247 178.483C195.207 180.11 195.687 182.03 195.687 184.243C195.687 186.457 195.207 188.39 194.247 190.043C193.313 191.67 192.033 192.937 190.407 193.843C188.807 194.75 186.953 195.203 184.847 195.203ZM173.007 202.683V173.563H177.767V178.603L177.607 184.283L178.007 189.963V202.683H173.007ZM184.287 190.923C185.487 190.923 186.553 190.657 187.487 190.123C188.447 189.59 189.207 188.817 189.767 187.803C190.327 186.79 190.607 185.603 190.607 184.243C190.607 182.857 190.327 181.67 189.767 180.683C189.207 179.67 188.447 178.897 187.487 178.363C186.553 177.83 185.487 177.563 184.287 177.563C183.087 177.563 182.007 177.83 181.047 178.363C180.087 178.897 179.327 179.67 178.767 180.683C178.207 181.67 177.927 182.857 177.927 184.243C177.927 185.603 178.207 186.79 178.767 187.803C179.327 188.817 180.087 189.59 181.047 190.123C182.007 190.657 183.087 190.923 184.287 190.923ZM210.468 195.203C208.095 195.203 206.015 194.737 204.228 193.803C202.468 192.843 201.095 191.537 200.108 189.883C199.148 188.23 198.668 186.35 198.668 184.243C198.668 182.11 199.135 180.23 200.068 178.603C201.028 176.95 202.335 175.657 203.988 174.723C205.668 173.79 207.575 173.323 209.708 173.323C211.788 173.323 213.642 173.777 215.268 174.683C216.895 175.59 218.175 176.87 219.108 178.523C220.042 180.177 220.508 182.123 220.508 184.363C220.508 184.577 220.495 184.817 220.468 185.083C220.468 185.35 220.455 185.603 220.428 185.843H202.628V182.523H217.788L215.828 183.563C215.855 182.337 215.602 181.257 215.068 180.323C214.535 179.39 213.802 178.657 212.868 178.123C211.962 177.59 210.908 177.323 209.708 177.323C208.482 177.323 207.402 177.59 206.468 178.123C205.562 178.657 204.842 179.403 204.308 180.363C203.802 181.297 203.548 182.403 203.548 183.683V184.483C203.548 185.763 203.842 186.897 204.428 187.883C205.015 188.87 205.842 189.63 206.908 190.163C207.975 190.697 209.202 190.963 210.588 190.963C211.788 190.963 212.868 190.777 213.828 190.403C214.788 190.03 215.642 189.443 216.388 188.643L219.068 191.723C218.108 192.843 216.895 193.71 215.428 194.323C213.988 194.91 212.335 195.203 210.468 195.203ZM252.271 173.323C253.978 173.323 255.485 173.657 256.791 174.323C258.125 174.99 259.165 176.017 259.911 177.403C260.658 178.763 261.031 180.523 261.031 182.683V194.923H256.031V183.323C256.031 181.43 255.618 180.017 254.791 179.083C253.965 178.15 252.778 177.683 251.231 177.683C250.138 177.683 249.165 177.923 248.311 178.403C247.485 178.883 246.831 179.59 246.351 180.523C245.898 181.457 245.671 182.643 245.671 184.083V194.923H240.671V183.323C240.671 181.43 240.258 180.017 239.431 179.083C238.605 178.15 237.418 177.683 235.871 177.683C234.778 177.683 233.805 177.923 232.951 178.403C232.125 178.883 231.471 179.59 230.991 180.523C230.538 181.457 230.311 182.643 230.311 184.083V194.923H225.311V173.563H230.071V179.243L229.231 177.563C229.951 176.177 230.991 175.123 232.351 174.403C233.738 173.683 235.311 173.323 237.071 173.323C239.071 173.323 240.805 173.817 242.271 174.803C243.765 175.79 244.751 177.283 245.231 179.283L243.271 178.603C243.965 177.003 245.111 175.723 246.711 174.763C248.311 173.803 250.165 173.323 252.271 173.323ZM277.5 195.203C275.126 195.203 273.046 194.737 271.26 193.803C269.5 192.843 268.126 191.537 267.14 189.883C266.18 188.23 265.7 186.35 265.7 184.243C265.7 182.11 266.166 180.23 267.1 178.603C268.06 176.95 269.366 175.657 271.02 174.723C272.7 173.79 274.606 173.323 276.74 173.323C278.82 173.323 280.673 173.777 282.3 174.683C283.926 175.59 285.206 176.87 286.14 178.523C287.073 180.177 287.54 182.123 287.54 184.363C287.54 184.577 287.526 184.817 287.5 185.083C287.5 185.35 287.486 185.603 287.46 185.843H269.66V182.523H284.82L282.86 183.563C282.886 182.337 282.633 181.257 282.1 180.323C281.566 179.39 280.833 178.657 279.9 178.123C278.993 177.59 277.94 177.323 276.74 177.323C275.513 177.323 274.433 177.59 273.5 178.123C272.593 178.657 271.873 179.403 271.34 180.363C270.833 181.297 270.58 182.403 270.58 183.683V184.483C270.58 185.763 270.873 186.897 271.46 187.883C272.046 188.87 272.873 189.63 273.94 190.163C275.006 190.697 276.233 190.963 277.62 190.963C278.82 190.963 279.9 190.777 280.86 190.403C281.82 190.03 282.673 189.443 283.42 188.643L286.1 191.723C285.14 192.843 283.926 193.71 282.46 194.323C281.02 194.91 279.366 195.203 277.5 195.203ZM304.463 173.323C306.169 173.323 307.689 173.657 309.023 174.323C310.383 174.99 311.449 176.017 312.223 177.403C312.996 178.763 313.383 180.523 313.383 182.683V194.923H308.383V183.323C308.383 181.43 307.929 180.017 307.023 179.083C306.143 178.15 304.903 177.683 303.303 177.683C302.129 177.683 301.089 177.923 300.183 178.403C299.276 178.883 298.569 179.603 298.063 180.563C297.583 181.497 297.343 182.683 297.343 184.123V194.923H292.343V173.563H297.103V179.323L296.263 177.563C297.009 176.203 298.089 175.163 299.503 174.443C300.943 173.697 302.596 173.323 304.463 173.323ZM327.765 195.203C325.419 195.203 323.605 194.603 322.325 193.403C321.045 192.177 320.405 190.377 320.405 188.003V168.843H325.405V187.883C325.405 188.897 325.659 189.683 326.165 190.243C326.699 190.803 327.432 191.083 328.365 191.083C329.485 191.083 330.419 190.79 331.165 190.203L332.565 193.763C331.979 194.243 331.259 194.603 330.405 194.843C329.552 195.083 328.672 195.203 327.765 195.203ZM316.885 177.723V173.723H331.125V177.723H316.885ZM91.7175 243.923V214.243H96.7175V243.923H91.7175ZM112.88 244.203C110.693 244.203 108.747 243.737 107.04 242.803C105.333 241.843 103.987 240.537 103 238.883C102.013 237.23 101.52 235.35 101.52 233.243C101.52 231.11 102.013 229.23 103 227.603C103.987 225.95 105.333 224.657 107.04 223.723C108.747 222.79 110.693 222.323 112.88 222.323C115.093 222.323 117.053 222.79 118.76 223.723C120.493 224.657 121.84 225.937 122.8 227.563C123.787 229.19 124.28 231.083 124.28 233.243C124.28 235.35 123.787 237.23 122.8 238.883C121.84 240.537 120.493 241.843 118.76 242.803C117.053 243.737 115.093 244.203 112.88 244.203ZM112.88 239.923C114.107 239.923 115.2 239.657 116.16 239.123C117.12 238.59 117.867 237.817 118.4 236.803C118.96 235.79 119.24 234.603 119.24 233.243C119.24 231.857 118.96 230.67 118.4 229.683C117.867 228.67 117.12 227.897 116.16 227.363C115.2 226.83 114.12 226.563 112.92 226.563C111.693 226.563 110.6 226.83 109.64 227.363C108.707 227.897 107.96 228.67 107.4 229.683C106.84 230.67 106.56 231.857 106.56 233.243C106.56 234.603 106.84 235.79 107.4 236.803C107.96 237.817 108.707 238.59 109.64 239.123C110.6 239.657 111.68 239.923 112.88 239.923ZM138.741 251.963C136.768 251.963 134.835 251.697 132.941 251.163C131.075 250.657 129.541 249.91 128.341 248.923L130.581 245.163C131.515 245.937 132.688 246.55 134.101 247.003C135.541 247.483 136.995 247.723 138.461 247.723C140.808 247.723 142.528 247.177 143.621 246.083C144.715 245.017 145.261 243.403 145.261 241.243V237.443L145.661 232.603L145.501 227.763V222.563H150.261V240.683C150.261 244.55 149.275 247.39 147.301 249.203C145.328 251.043 142.475 251.963 138.741 251.963ZM138.101 242.963C136.075 242.963 134.235 242.537 132.581 241.683C130.955 240.803 129.661 239.59 128.701 238.043C127.768 236.497 127.301 234.683 127.301 232.603C127.301 230.55 127.768 228.75 128.701 227.203C129.661 225.657 130.955 224.457 132.581 223.603C134.235 222.75 136.075 222.323 138.101 222.323C139.915 222.323 141.541 222.683 142.981 223.403C144.421 224.123 145.568 225.243 146.421 226.763C147.301 228.283 147.741 230.23 147.741 232.603C147.741 234.977 147.301 236.937 146.421 238.483C145.568 240.003 144.421 241.137 142.981 241.883C141.541 242.603 139.915 242.963 138.101 242.963ZM138.861 238.723C140.115 238.723 141.235 238.47 142.221 237.963C143.208 237.43 143.968 236.71 144.501 235.803C145.061 234.87 145.341 233.803 145.341 232.603C145.341 231.403 145.061 230.35 144.501 229.443C143.968 228.51 143.208 227.803 142.221 227.323C141.235 226.817 140.115 226.563 138.861 226.563C137.608 226.563 136.475 226.817 135.461 227.323C134.475 227.803 133.701 228.51 133.141 229.443C132.608 230.35 132.341 231.403 132.341 232.603C132.341 233.803 132.608 234.87 133.141 235.803C133.701 236.71 134.475 237.43 135.461 237.963C136.475 238.47 137.608 238.723 138.861 238.723ZM156.835 243.923V222.563H161.835V243.923H156.835ZM159.355 219.043C158.421 219.043 157.648 218.75 157.035 218.163C156.448 217.577 156.155 216.87 156.155 216.043C156.155 215.19 156.448 214.483 157.035 213.923C157.648 213.337 158.421 213.043 159.355 213.043C160.288 213.043 161.048 213.323 161.635 213.883C162.248 214.417 162.555 215.097 162.555 215.923C162.555 216.803 162.261 217.55 161.675 218.163C161.088 218.75 160.315 219.043 159.355 219.043ZM178.197 244.203C175.957 244.203 173.957 243.737 172.197 242.803C170.464 241.843 169.104 240.537 168.117 238.883C167.131 237.23 166.637 235.35 166.637 233.243C166.637 231.11 167.131 229.23 168.117 227.603C169.104 225.95 170.464 224.657 172.197 223.723C173.957 222.79 175.957 222.323 178.197 222.323C180.277 222.323 182.104 222.75 183.677 223.603C185.277 224.43 186.491 225.657 187.317 227.283L183.477 229.523C182.837 228.51 182.051 227.763 181.117 227.283C180.211 226.803 179.224 226.563 178.157 226.563C176.931 226.563 175.824 226.83 174.837 227.363C173.851 227.897 173.077 228.67 172.517 229.683C171.957 230.67 171.677 231.857 171.677 233.243C171.677 234.63 171.957 235.83 172.517 236.843C173.077 237.83 173.851 238.59 174.837 239.123C175.824 239.657 176.931 239.923 178.157 239.923C179.224 239.923 180.211 239.683 181.117 239.203C182.051 238.723 182.837 237.977 183.477 236.963L187.317 239.203C186.491 240.803 185.277 242.043 183.677 242.923C182.104 243.777 180.277 244.203 178.197 244.203ZM191.444 243.923V222.563H196.444V243.923H191.444ZM193.964 219.043C193.031 219.043 192.257 218.75 191.644 218.163C191.057 217.577 190.764 216.87 190.764 216.043C190.764 215.19 191.057 214.483 191.644 213.923C192.257 213.337 193.031 213.043 193.964 213.043C194.897 213.043 195.657 213.323 196.244 213.883C196.857 214.417 197.164 215.097 197.164 215.923C197.164 216.803 196.871 217.55 196.284 218.163C195.697 218.75 194.924 219.043 193.964 219.043ZM213.047 244.203C210.673 244.203 208.593 243.737 206.807 242.803C205.047 241.843 203.673 240.537 202.687 238.883C201.727 237.23 201.247 235.35 201.247 233.243C201.247 231.11 201.713 229.23 202.647 227.603C203.607 225.95 204.913 224.657 206.567 223.723C208.247 222.79 210.153 222.323 212.287 222.323C214.367 222.323 216.22 222.777 217.847 223.683C219.473 224.59 220.753 225.87 221.687 227.523C222.62 229.177 223.087 231.123 223.087 233.363C223.087 233.577 223.073 233.817 223.047 234.083C223.047 234.35 223.033 234.603 223.007 234.843H205.207V231.523H220.367L218.407 232.563C218.433 231.337 218.18 230.257 217.647 229.323C217.113 228.39 216.38 227.657 215.447 227.123C214.54 226.59 213.487 226.323 212.287 226.323C211.06 226.323 209.98 226.59 209.047 227.123C208.14 227.657 207.42 228.403 206.887 229.363C206.38 230.297 206.127 231.403 206.127 232.683V233.483C206.127 234.763 206.42 235.897 207.007 236.883C207.593 237.87 208.42 238.63 209.487 239.163C210.553 239.697 211.78 239.963 213.167 239.963C214.367 239.963 215.447 239.777 216.407 239.403C217.367 239.03 218.22 238.443 218.967 237.643L221.647 240.723C220.687 241.843 219.473 242.71 218.007 243.323C216.567 243.91 214.913 244.203 213.047 244.203ZM227.889 243.923V214.243H232.889V243.923H227.889Z" fill="white"/>
<path d="M259.514 2.4746H240.328C232.506 2.4746 226.107 8.1075 226.107 15.0044V98.31C226.107 105.206 232.506 110.846 240.328 110.846H259.514C267.333 110.846 273.728 105.207 273.728 98.31V15.0044C273.728 8.1081 267.332 2.4746 259.514 2.4746ZM249.923 64.8012C247.718 64.8012 245.937 63.2283 245.937 61.2949C245.937 59.3549 247.718 57.7825 249.923 57.7825C252.116 57.7825 253.897 59.3549 253.897 61.2949C253.898 63.2289 252.116 64.8012 249.923 64.8012ZM248.215 52.5227C248.215 51.6911 248.976 51.021 249.923 51.021C250.866 51.021 251.626 51.6911 251.626 52.5227C251.626 53.3537 250.866 54.0243 249.923 54.0243C248.976 54.0249 248.215 53.3543 248.215 52.5227ZM263.957 28.7846H235.881C235.099 28.7846 234.458 28.2174 234.458 27.5277C234.458 26.8316 235.099 26.2774 235.881 26.2774H263.957C264.739 26.2774 265.375 26.8316 265.375 27.5277C265.376 28.2174 264.74 28.7846 263.957 28.7846ZM263.957 22.5197H235.881C235.099 22.5197 234.458 21.959 234.458 21.2628C234.458 20.5732 235.099 20.0124 235.881 20.0124H263.957C264.739 20.0124 265.375 20.5732 265.375 21.2628C265.376 21.959 264.74 22.5197 263.957 22.5197ZM263.957 16.2554H235.881C235.099 16.2554 234.458 15.6947 234.458 15.005C234.458 14.3089 235.099 13.7481 235.881 13.7481H263.957C264.739 13.7481 265.375 14.3089 265.375 15.005C265.376 15.6941 264.74 16.2554 263.957 16.2554ZM204.455 0H93.4023C83.3974 0.013068 75.2946 7.15413 75.2723 15.9655V74.4246C75.2946 83.242 83.3974 90.3765 93.4023 90.3896H134.752V98.8909C134.752 99.8063 134.35 101.256 133.849 102.114L120.213 106.535C118.993 107.038 116.795 107.444 115.34 107.444H112.615C111.153 107.444 109.953 108.198 109.953 109.107V109.184C109.953 110.093 111.152 110.847 112.615 110.847H185.244C186.707 110.847 187.906 110.093 187.906 109.184V109.107C187.906 108.198 187.347 107.444 186.666 107.444C185.982 107.444 184.246 107.328 182.794 107.192L165.228 101.443C163.992 100.953 162.983 99.8057 162.983 98.8903V90.389H204.457C214.461 90.3765 222.564 83.2414 222.586 74.424V15.9649C222.563 7.15414 214.46 0.013068 204.455 0ZM186.771 87.16H172.171C171.147 87.16 170.317 86.4317 170.317 85.5229C170.317 84.62 171.147 83.8924 172.171 83.8924H186.771C187.796 83.8924 188.626 84.6206 188.626 85.5229C188.626 86.4317 187.796 87.16 186.771 87.16ZM192.959 87.2051C191.903 87.2051 191.05 86.4573 191.05 85.5229C191.05 84.5951 191.903 83.8472 192.959 83.8472C194.009 83.8472 194.868 84.5951 194.868 85.5229C194.868 86.4573 194.008 87.2051 192.959 87.2051ZM212.116 74.424C212.112 78.1039 208.635 81.1659 204.455 81.1784H93.4023C89.2187 81.1653 85.745 78.1039 85.7375 74.424V15.9649C85.745 12.291 89.2187 9.22303 93.4023 9.2165H204.456C208.635 9.22303 212.113 12.291 212.117 15.9649V74.424H212.116Z" fill="white"/>
<path d="M101.564 34.0439V40.1473V40.3017C101.564 41.346 101.096 42.158 100.148 42.7128C99.2047 43.2801 97.819 43.5569 95.9904 43.5569V48.1461C97.8042 48.1461 99.1865 48.4425 100.137 49.0294C101.088 49.6157 101.563 50.4663 101.563 51.5818V57.621C101.563 59.5931 102.265 60.9789 103.677 61.7784C105.081 62.5773 107.56 62.9771 111.1 62.9771V58.6391C109.645 58.607 108.654 58.3623 108.116 57.9109C107.583 57.466 107.312 56.8025 107.312 55.9323V50.2025V50.0285C107.312 47.7659 105.615 46.4063 102.215 45.9614V45.7291C105.528 45.2973 107.225 43.8729 107.312 41.4689V35.7327C107.312 34.8625 107.583 34.2049 108.127 33.7541C108.672 33.3092 109.667 33.0644 111.1 33.0258V28.714C107.56 28.714 105.081 29.1138 103.677 29.9061C102.266 30.7116 101.564 32.0915 101.564 34.0439Z" fill="#FF931E"/>
<path d="M126.839 39.6323C127.738 39.6323 128.642 39.7481 129.537 39.9869C130.441 40.2191 131.413 40.5215 132.459 40.8957L134.415 36.3647C132.184 35.3976 129.655 34.9076 126.839 34.9076C122.992 34.9076 120.041 35.8746 117.982 37.8016C115.92 39.716 114.889 42.5066 114.889 46.1544C114.889 53.4766 118.677 57.144 126.254 57.144C127.921 57.144 129.304 57.0282 130.4 56.7959C131.493 56.5702 132.579 56.1514 133.655 55.5515V50.5435C132.565 51.1814 131.479 51.6519 130.393 51.9548C129.304 52.2577 128.119 52.4062 126.839 52.4062C123.387 52.4062 121.661 50.3053 121.661 46.1158C121.661 41.7915 123.387 39.6323 126.839 39.6323Z" fill="#FF931E"/>
<path d="M153.679 45.6133C152.793 45.0198 151.401 44.395 149.503 43.7119C147.371 42.9575 145.985 42.3902 145.353 42.0106C144.727 41.6239 144.409 41.1725 144.409 40.6438C144.409 39.7095 145.386 39.245 147.345 39.245C148.449 39.245 149.532 39.3935 150.592 39.6833C151.653 39.9803 152.786 40.3534 154.008 40.8179L156.011 36.5963C153.24 35.4683 150.388 34.9076 147.455 34.9076C144.38 34.9076 141.999 35.4297 140.328 36.474C138.65 37.5117 137.809 38.9878 137.809 40.8957C137.809 42.0106 138.014 42.9456 138.412 43.7059C138.811 44.4662 139.451 45.1369 140.328 45.7297C141.202 46.3225 142.581 46.9604 144.449 47.6501C145.755 48.133 146.801 48.5589 147.586 48.926C148.369 49.2865 148.921 49.6156 149.239 49.9055C149.561 50.1894 149.722 50.5625 149.722 51.0204C149.722 52.2512 148.515 52.8642 146.102 52.8642C144.932 52.8642 143.567 52.6902 142.028 52.3486C140.477 52.0005 139.088 51.5752 137.852 51.0662V55.9001C138.942 56.3064 140.112 56.6159 141.362 56.828C142.606 57.0406 144.119 57.144 145.889 57.144C149.342 57.144 151.937 56.5702 153.671 55.4166C155.404 54.2631 156.274 52.5933 156.274 50.389C156.274 49.3323 156.062 48.4169 155.641 47.6501C155.222 46.8767 154.571 46.2001 153.679 45.6133Z" fill="#FF931E"/>
<path d="M175.838 45.6133C174.957 45.0198 173.564 44.395 171.662 43.7119C169.527 42.9575 168.148 42.3902 167.516 42.0106C166.887 41.6239 166.572 41.1725 166.572 40.6438C166.572 39.7095 167.552 39.245 169.509 39.245C170.61 39.245 171.692 39.3935 172.752 39.6833C173.812 39.9803 174.95 40.3534 176.167 40.8179L178.175 36.5963C175.4 35.4683 172.551 34.9076 169.623 34.9076C166.544 34.9076 164.164 35.4297 162.489 36.474C160.81 37.5117 159.977 38.9878 159.977 40.8957C159.977 42.0106 160.174 42.9456 160.576 43.7059C160.971 44.4662 161.612 45.1369 162.489 45.7297C163.366 46.3225 164.745 46.9604 166.614 47.6501C167.918 48.133 168.964 48.5589 169.747 48.926C170.529 49.2865 171.081 49.6156 171.4 49.9055C171.722 50.1894 171.882 50.5625 171.882 51.0204C171.882 52.2512 170.679 52.8642 168.27 52.8642C167.092 52.8642 165.732 52.6902 164.188 52.3486C162.638 52.0005 161.248 51.5752 160.02 51.0662V55.9001C161.106 56.3064 162.276 56.6159 163.523 56.828C164.766 57.0406 166.28 57.144 168.05 57.144C171.502 57.144 174.098 56.5702 175.831 55.4166C177.568 54.2631 178.435 52.5933 178.435 50.389C178.435 49.3323 178.223 48.4169 177.805 47.6501C177.381 46.8767 176.731 46.2001 175.838 45.6133Z" fill="#FF931E"/>
<path d="M192.791 42.752C191.899 42.2233 191.453 41.4113 191.453 40.335V40.1479V34.0445C191.453 32.6391 191.161 31.5699 190.575 30.828C189.982 30.0998 189.002 29.5581 187.62 29.2165C186.238 28.8815 184.344 28.714 181.919 28.714V33.0258C183.367 33.0644 184.362 33.3026 184.9 33.7345C185.434 34.1728 185.704 34.8363 185.704 35.7327V41.4689C185.792 43.8729 187.481 45.2973 190.779 45.7291V45.9614C189.108 46.174 187.847 46.6314 186.991 47.3145C186.135 47.9976 185.704 48.8868 185.704 49.9893V50.2019V55.9317C185.704 56.8399 185.434 57.517 184.885 57.9489C184.344 58.3867 183.356 58.6124 181.919 58.6379V62.9759C184.344 62.9759 186.238 62.8084 187.609 62.4669C188.98 62.1318 189.968 61.5966 190.56 60.8625C191.157 60.1402 191.452 59.0579 191.452 57.6204V51.5812C191.452 50.3368 191.928 49.4541 192.878 48.932C193.829 48.4098 195.211 48.1455 197.024 48.1455V43.5563C195.097 43.5575 193.683 43.2931 192.791 42.752Z" fill="#FF931E"/>
</svg>
