<svg width="90" height="90" viewBox="0 0 232 244" fill="none" xmlns="http://www.w3.org/2000/svg">
<path d="M129.456 157.96C131.544 157.74 133.632 157.74 135.488 157.96C141.52 159.72 145 164.12 145 169.4C145 175.78 139.432 181.06 132.704 181.06C125.976 181.06 120.408 175.78 120.408 169.4C120.408 164.56 123.656 160.16 128.528 158.4C128.992 158.4 129.224 158.18 129.456 157.96Z" fill="#F99F72"/>
<path d="M96.28 149.16C98.368 148.72 100.224 148.72 102.312 149.16C106.952 150.7 110.2 153.34 111.128 158.18C112.056 163.02 110.896 167.2 105.56 170.5C101.384 173.14 95.816 172.7 91.872 169.84C88.392 167.64 86.536 163.9 87 159.94C87.232 154.88 90.944 150.48 96.28 149.16Z" fill="#F99F72"/>
<path d="M165.416 156.86C165.184 154.88 165.184 152.9 165.416 150.92C166.344 149.16 167.272 147.4 168.664 145.86C171.68 142.78 176.32 141.68 180.496 142.78C185.136 143.66 188.616 147.4 189.312 151.8C190.704 157.96 186.528 164.12 180.032 165.44C179.336 165.66 178.64 165.66 177.944 165.66C172.144 165.88 166.808 162.14 165.416 156.86Z" fill="#F99F72"/>
<path d="M66.352 151.14C66.816 153.12 66.816 154.88 66.584 156.86C65.656 159.5 63.8 161.92 61.48 163.68C55.912 167.2 48.256 165.88 44.544 160.6C40.832 155.32 42.224 148.06 47.792 144.54C53.36 141.02 61.016 142.34 64.728 147.62C65.424 148.72 66.12 149.82 66.352 151.14Z" fill="#F99F72"/>
<path d="M116.928 82.5C123.656 82.72 130.152 85.36 135.024 89.98C136.184 90.86 136.416 92.4 135.72 93.5C135.024 94.6 133.632 95.26 132.472 95.04C131.776 94.82 131.08 94.6 130.616 93.94C122.264 86.24 109.04 86.24 100.688 93.94C99.528 95.26 97.672 95.48 96.28 94.38L96.048 94.16C94.656 92.84 94.888 91.08 96.512 89.76C102.08 84.92 109.504 82.28 116.928 82.5Z" fill="white"/>
<path d="M127.368 100.1C127.368 101.42 126.672 102.52 125.512 102.96C124.352 103.4 122.96 103.18 122.264 102.3C121.104 101.2 119.48 100.32 117.856 100.1C114.84 99.4401 111.592 100.1 109.272 102.3C108.344 103.18 106.72 103.62 105.56 102.96C104.4 102.3 103.704 101.2 103.936 99.8801C103.936 99.2201 104.4 98.5601 104.864 98.1201C110.896 92.6201 120.176 92.6201 126.208 98.1201C126.904 98.7801 127.368 99.4401 127.368 100.1Z" fill="white"/>
<path d="M118.784 108.68C118.784 110.22 117.624 111.54 115.768 111.76H115.536C113.912 111.76 112.52 110.44 112.52 108.9C112.52 107.36 113.912 105.82 115.768 105.82C117.392 105.82 118.552 107.14 118.784 108.68Z" fill="white"/>
<path d="M89.76 234V206H94.96V234H89.76ZM111.653 234.28C109.467 234.28 107.52 233.813 105.813 232.88C104.107 231.92 102.76 230.613 101.773 228.96C100.787 227.307 100.293 225.427 100.293 223.32C100.293 221.187 100.787 219.307 101.773 217.68C102.76 216.027 104.107 214.733 105.813 213.8C107.52 212.867 109.467 212.4 111.653 212.4C113.867 212.4 115.827 212.867 117.533 213.8C119.267 214.733 120.613 216.013 121.573 217.64C122.56 219.267 123.053 221.16 123.053 223.32C123.053 225.427 122.56 227.307 121.573 228.96C120.613 230.613 119.267 231.92 117.533 232.88C115.827 233.813 113.867 234.28 111.653 234.28ZM111.653 230C112.88 230 113.973 229.733 114.933 229.2C115.893 228.667 116.64 227.893 117.173 226.88C117.733 225.867 118.013 224.68 118.013 223.32C118.013 221.933 117.733 220.747 117.173 219.76C116.64 218.747 115.893 217.973 114.933 217.44C113.973 216.907 112.893 216.64 111.693 216.64C110.467 216.64 109.373 216.907 108.413 217.44C107.48 217.973 106.733 218.747 106.173 219.76C105.613 220.747 105.333 221.933 105.333 223.32C105.333 224.68 105.613 225.867 106.173 226.88C106.733 227.893 107.48 228.667 108.413 229.2C109.373 229.733 110.453 230 111.653 230ZM131.026 234V210.4H121.746V206H145.506V210.4H136.226V234H131.026Z" fill="white"/>
<path d="M37.584 110.88C38.28 110 38.28 108.9 38.512 107.8C39.904 102.74 43.152 98.34 48.024 95.48C48.72 95.26 49.184 94.38 48.952 93.72C45.24 76.56 56.84 60.06 74.936 56.54C75.864 56.32 76.792 56.32 77.72 56.1C83.752 55.44 89.784 56.32 95.352 58.96L96.512 59.62C96.512 59.62 96.512 59.62 96.744 59.62C109.968 39.16 138.272 32.78 159.848 45.54C167.504 50.16 173.768 56.54 177.48 64.46C182.352 73.92 183.28 84.48 180.264 94.6C180.728 95.04 181.424 95.26 182.12 95.48C188.848 98.56 193.488 104.5 194.88 111.54C194.88 111.76 194.88 112.2 195.112 112.2V118.36C194.648 118.8 194.648 119.46 194.416 120.12C192.328 129.36 183.976 135.96 174 136.4C169.128 136.62 164.024 136.4 159.152 136.4H157.528V151.14H165.88C165.648 153.12 165.648 155.1 165.88 157.08C162.168 157.08 158.456 157.08 154.976 157.08C152.424 157.08 151.264 155.98 151.264 153.56C151.264 148.5 151.264 143.22 151.264 138.16V136.4H136.184V157.96C134.096 157.52 132.008 157.52 130.152 157.96V136.4H102.312V149.16C100.224 148.72 98.368 148.72 96.28 149.16V136.4H81.432C81.2 136.84 81.2 137.5 81.2 137.94C81.2 143 81.2 148.06 81.2 153.12C81.2 155.98 80.272 156.86 77.256 156.86C73.776 156.86 70.064 156.86 66.584 156.86C67.048 154.88 66.816 152.9 66.352 151.14H74.936V136.62C74.472 136.18 73.776 136.4 73.312 136.4C68.208 136.4 63.104 136.62 58.232 136.18C48.488 135.52 40.136 128.92 38.048 119.9C37.816 119.24 38.048 118.58 37.352 118.14L37.584 110.88ZM173.304 93.72C175.624 87.78 175.856 80.3 173.536 72.6C169.128 57.2 154.512 45.76 137.808 44.88C121.104 44 108.808 51.04 100.456 64.46C98.832 66.88 97.44 67.32 95.12 65.78C82.592 58.3 66.12 61.82 58.232 73.7C56.608 76.34 55.216 78.98 54.752 82.06C53.824 85.8 53.824 89.98 54.984 93.72H66.816C69.136 93.72 70.528 94.82 70.528 96.58C70.528 98.34 69.136 99.66 66.816 99.66C62.872 99.66 58.928 99.66 55.216 99.66C53.592 99.66 51.968 100.1 50.576 101.2C44.776 104.94 42.224 113.08 44.312 119.9C46.4 126.5 53.128 131.12 60.32 130.68H171.216C172.608 130.68 173.768 130.68 174.928 130.46C183.744 128.7 189.544 120.56 187.688 111.98C187.224 109.78 186.296 107.8 184.904 106.04C182.12 101.86 177.248 99.44 172.144 99.66C168.2 99.88 164.256 99.66 160.312 99.66C158.688 99.66 157.296 98.12 157.296 96.58C157.296 95.48 157.992 94.6 158.92 94.16C159.616 93.94 160.08 93.94 160.776 93.94L173.304 93.72Z" fill="white"/>
</svg>
