<svg width="90" height="90" viewBox="0 0 274 183" fill="none" xmlns="http://www.w3.org/2000/svg">
<path d="M30.24 151.4C31.9467 151.4 33.4533 151.733 34.76 152.4C36.0933 153.067 37.1333 154.093 37.88 155.48C38.6267 156.84 39 158.6 39 160.76V173H34V161.4C34 159.507 33.5867 158.093 32.76 157.16C31.9333 156.227 30.7467 155.76 29.2 155.76C28.1067 155.76 27.1333 156 26.28 156.48C25.4533 156.96 24.8 157.667 24.32 158.6C23.8667 159.533 23.64 160.72 23.64 162.16V173H18.64V161.4C18.64 159.507 18.2267 158.093 17.4 157.16C16.5733 156.227 15.3867 155.76 13.84 155.76C12.7467 155.76 11.7733 156 10.92 156.48C10.0933 156.96 9.44 157.667 8.96 158.6C8.50667 159.533 8.28 160.72 8.28 162.16V173H3.28V151.64H8.04V157.32L7.2 155.64C7.92 154.253 8.96 153.2 10.32 152.48C11.7067 151.76 13.28 151.4 15.04 151.4C17.04 151.4 18.7733 151.893 20.24 152.88C21.7333 153.867 22.72 155.36 23.2 157.36L21.24 156.68C21.9333 155.08 23.08 153.8 24.68 152.84C26.28 151.88 28.1333 151.4 30.24 151.4ZM58.5494 173V168.68L58.2694 167.76V160.2C58.2694 158.733 57.8294 157.6 56.9494 156.8C56.0694 155.973 54.736 155.56 52.9494 155.56C51.7494 155.56 50.5627 155.747 49.3894 156.12C48.2427 156.493 47.2694 157.013 46.4694 157.68L44.5094 154.04C45.656 153.16 47.016 152.507 48.5894 152.08C50.1894 151.627 51.8427 151.4 53.5494 151.4C56.6427 151.4 59.0294 152.147 60.7094 153.64C62.416 155.107 63.2694 157.387 63.2694 160.48V173H58.5494ZM51.8294 173.28C50.2294 173.28 48.8294 173.013 47.6294 172.48C46.4294 171.92 45.496 171.16 44.8294 170.2C44.1894 169.213 43.8694 168.107 43.8694 166.88C43.8694 165.68 44.1494 164.6 44.7094 163.64C45.296 162.68 46.2427 161.92 47.5494 161.36C48.856 160.8 50.5894 160.52 52.7494 160.52H58.9494V163.84H53.1094C51.4027 163.84 50.256 164.12 49.6694 164.68C49.0827 165.213 48.7894 165.88 48.7894 166.68C48.7894 167.587 49.1494 168.307 49.8694 168.84C50.5894 169.373 51.5894 169.64 52.8694 169.64C54.096 169.64 55.1894 169.36 56.1494 168.8C57.136 168.24 57.8427 167.413 58.2694 166.32L59.1094 169.32C58.6294 170.573 57.7627 171.547 56.5094 172.24C55.2827 172.933 53.7227 173.28 51.8294 173.28ZM69.6863 173V151.64H74.6863V173H69.6863ZM72.2063 148.12C71.2729 148.12 70.4996 147.827 69.8863 147.24C69.2996 146.653 69.0063 145.947 69.0063 145.12C69.0063 144.267 69.2996 143.56 69.8863 143C70.4996 142.413 71.2729 142.12 72.2063 142.12C73.1396 142.12 73.8996 142.4 74.4863 142.96C75.0996 143.493 75.4063 144.173 75.4063 145C75.4063 145.88 75.1129 146.627 74.5263 147.24C73.9396 147.827 73.1663 148.12 72.2063 148.12ZM93.3688 151.4C95.0754 151.4 96.5954 151.733 97.9288 152.4C99.2888 153.067 100.355 154.093 101.129 155.48C101.902 156.84 102.289 158.6 102.289 160.76V173H97.2888V161.4C97.2888 159.507 96.8354 158.093 95.9288 157.16C95.0488 156.227 93.8088 155.76 92.2088 155.76C91.0354 155.76 89.9954 156 89.0888 156.48C88.1821 156.96 87.4754 157.68 86.9688 158.64C86.4888 159.573 86.2488 160.76 86.2488 162.2V173H81.2488V151.64H86.0088V157.4L85.1688 155.64C85.9154 154.28 86.9954 153.24 88.4088 152.52C89.8488 151.773 91.5021 151.4 93.3688 151.4ZM116.672 173.28C114.325 173.28 112.512 172.68 111.232 171.48C109.952 170.253 109.312 168.453 109.312 166.08V146.92H114.312V165.96C114.312 166.973 114.565 167.76 115.072 168.32C115.605 168.88 116.338 169.16 117.272 169.16C118.392 169.16 119.325 168.867 120.072 168.28L121.472 171.84C120.885 172.32 120.165 172.68 119.312 172.92C118.458 173.16 117.578 173.28 116.672 173.28ZM105.792 155.8V151.8H120.032V155.8H105.792ZM134.922 173.28C132.548 173.28 130.468 172.813 128.682 171.88C126.922 170.92 125.548 169.613 124.562 167.96C123.602 166.307 123.122 164.427 123.122 162.32C123.122 160.187 123.588 158.307 124.522 156.68C125.482 155.027 126.788 153.733 128.442 152.8C130.122 151.867 132.028 151.4 134.162 151.4C136.242 151.4 138.095 151.853 139.722 152.76C141.348 153.667 142.628 154.947 143.562 156.6C144.495 158.253 144.962 160.2 144.962 162.44C144.962 162.653 144.948 162.893 144.922 163.16C144.922 163.427 144.908 163.68 144.882 163.92H127.082V160.6H142.242L140.282 161.64C140.308 160.413 140.055 159.333 139.522 158.4C138.988 157.467 138.255 156.733 137.322 156.2C136.415 155.667 135.362 155.4 134.162 155.4C132.935 155.4 131.855 155.667 130.922 156.2C130.015 156.733 129.295 157.48 128.762 158.44C128.255 159.373 128.002 160.48 128.002 161.76V162.56C128.002 163.84 128.295 164.973 128.882 165.96C129.468 166.947 130.295 167.707 131.362 168.24C132.428 168.773 133.655 169.04 135.042 169.04C136.242 169.04 137.322 168.853 138.282 168.48C139.242 168.107 140.095 167.52 140.842 166.72L143.522 169.8C142.562 170.92 141.348 171.787 139.882 172.4C138.442 172.987 136.788 173.28 134.922 173.28ZM161.884 151.4C163.591 151.4 165.111 151.733 166.444 152.4C167.804 153.067 168.871 154.093 169.644 155.48C170.418 156.84 170.804 158.6 170.804 160.76V173H165.804V161.4C165.804 159.507 165.351 158.093 164.444 157.16C163.564 156.227 162.324 155.76 160.724 155.76C159.551 155.76 158.511 156 157.604 156.48C156.698 156.96 155.991 157.68 155.484 158.64C155.004 159.573 154.764 160.76 154.764 162.2V173H149.764V151.64H154.524V157.4L153.684 155.64C154.431 154.28 155.511 153.24 156.924 152.52C158.364 151.773 160.018 151.4 161.884 151.4ZM190.307 173V168.68L190.027 167.76V160.2C190.027 158.733 189.587 157.6 188.707 156.8C187.827 155.973 186.494 155.56 184.707 155.56C183.507 155.56 182.321 155.747 181.147 156.12C180.001 156.493 179.027 157.013 178.227 157.68L176.267 154.04C177.414 153.16 178.774 152.507 180.347 152.08C181.947 151.627 183.601 151.4 185.307 151.4C188.401 151.4 190.787 152.147 192.467 153.64C194.174 155.107 195.027 157.387 195.027 160.48V173H190.307ZM183.587 173.28C181.987 173.28 180.587 173.013 179.387 172.48C178.187 171.92 177.254 171.16 176.587 170.2C175.947 169.213 175.627 168.107 175.627 166.88C175.627 165.68 175.907 164.6 176.467 163.64C177.054 162.68 178.001 161.92 179.307 161.36C180.614 160.8 182.347 160.52 184.507 160.52H190.707V163.84H184.867C183.161 163.84 182.014 164.12 181.427 164.68C180.841 165.213 180.547 165.88 180.547 166.68C180.547 167.587 180.907 168.307 181.627 168.84C182.347 169.373 183.347 169.64 184.627 169.64C185.854 169.64 186.947 169.36 187.907 168.8C188.894 168.24 189.601 167.413 190.027 166.32L190.867 169.32C190.387 170.573 189.521 171.547 188.267 172.24C187.041 172.933 185.481 173.28 183.587 173.28ZM213.564 151.4C215.271 151.4 216.791 151.733 218.124 152.4C219.484 153.067 220.551 154.093 221.324 155.48C222.097 156.84 222.484 158.6 222.484 160.76V173H217.484V161.4C217.484 159.507 217.031 158.093 216.124 157.16C215.244 156.227 214.004 155.76 212.404 155.76C211.231 155.76 210.191 156 209.284 156.48C208.377 156.96 207.671 157.68 207.164 158.64C206.684 159.573 206.444 160.76 206.444 162.2V173H201.444V151.64H206.204V157.4L205.364 155.64C206.111 154.28 207.191 153.24 208.604 152.52C210.044 151.773 211.697 151.4 213.564 151.4ZM238.666 173.28C236.426 173.28 234.426 172.813 232.666 171.88C230.933 170.92 229.573 169.613 228.586 167.96C227.599 166.307 227.106 164.427 227.106 162.32C227.106 160.187 227.599 158.307 228.586 156.68C229.573 155.027 230.933 153.733 232.666 152.8C234.426 151.867 236.426 151.4 238.666 151.4C240.746 151.4 242.573 151.827 244.146 152.68C245.746 153.507 246.959 154.733 247.786 156.36L243.946 158.6C243.306 157.587 242.519 156.84 241.586 156.36C240.679 155.88 239.693 155.64 238.626 155.64C237.399 155.64 236.293 155.907 235.306 156.44C234.319 156.973 233.546 157.747 232.986 158.76C232.426 159.747 232.146 160.933 232.146 162.32C232.146 163.707 232.426 164.907 232.986 165.92C233.546 166.907 234.319 167.667 235.306 168.2C236.293 168.733 237.399 169 238.626 169C239.693 169 240.679 168.76 241.586 168.28C242.519 167.8 243.306 167.053 243.946 166.04L247.786 168.28C246.959 169.88 245.746 171.12 244.146 172C242.573 172.853 240.746 173.28 238.666 173.28ZM261.836 173.28C259.462 173.28 257.382 172.813 255.596 171.88C253.836 170.92 252.462 169.613 251.476 167.96C250.516 166.307 250.036 164.427 250.036 162.32C250.036 160.187 250.502 158.307 251.436 156.68C252.396 155.027 253.702 153.733 255.356 152.8C257.036 151.867 258.942 151.4 261.076 151.4C263.156 151.4 265.009 151.853 266.636 152.76C268.262 153.667 269.542 154.947 270.476 156.6C271.409 158.253 271.876 160.2 271.876 162.44C271.876 162.653 271.862 162.893 271.836 163.16C271.836 163.427 271.822 163.68 271.796 163.92H253.996V160.6H269.156L267.196 161.64C267.222 160.413 266.969 159.333 266.436 158.4C265.902 157.467 265.169 156.733 264.236 156.2C263.329 155.667 262.276 155.4 261.076 155.4C259.849 155.4 258.769 155.667 257.836 156.2C256.929 156.733 256.209 157.48 255.676 158.44C255.169 159.373 254.916 160.48 254.916 161.76V162.56C254.916 163.84 255.209 164.973 255.796 165.96C256.382 166.947 257.209 167.707 258.276 168.24C259.342 168.773 260.569 169.04 261.956 169.04C263.156 169.04 264.236 168.853 265.196 168.48C266.156 168.107 267.009 167.52 267.756 166.72L270.436 169.8C269.476 170.92 268.262 171.787 266.796 172.4C265.356 172.987 263.702 173.28 261.836 173.28Z" fill="white"/>
<path d="M201.83 74.0639V59.099L181.905 55.2943C180.418 49.9678 178.039 44.8949 174.471 40.0757L184.879 25.1107L172.686 14.4577L155.14 23.3352C149.788 20.5451 143.542 18.2623 137.297 16.9941L132.242 0H114.993L110.235 16.9941C103.99 18.2623 98.0425 20.2915 92.3921 23.3352L74.8464 14.204L62.3562 24.8571L72.7647 39.822C69.4934 44.3876 66.817 49.7141 65.3301 55.0407L46 59.3526V74.3176L65.9248 78.3759C67.4118 83.7024 69.7908 88.7753 73.3595 93.5945L62.951 108.559L75.4412 119.466L92.6895 110.589C98.0425 113.379 104.288 115.661 110.533 116.93L115.291 133.924H132.837L137.595 116.93C143.84 115.661 149.788 113.632 155.438 110.589L172.984 119.466L185.474 108.813L175.065 93.8481C178.337 89.2826 181.013 83.956 182.5 78.6295L201.83 74.0639ZM123.618 82.9415C113.209 82.9415 104.585 75.8394 104.585 66.7083C104.585 57.8307 112.912 50.4751 123.618 50.4751C134.026 50.4751 142.65 57.5771 142.65 66.7083C142.65 75.5858 134.323 82.9415 123.618 82.9415C123.915 82.9415 123.915 82.9415 123.618 82.9415Z" fill="#ED8B00"/>
<path d="M123.618 32.2124C101.314 32.2124 83.1732 47.9383 83.1732 66.9616C83.1732 85.9848 101.611 101.457 123.915 101.203C146.219 101.203 164.359 85.4776 164.359 66.4543C164.359 47.6847 146.219 32.2124 123.618 32.2124Z" fill="#FBB040"/>
<path d="M146.814 57.5768L134.026 68.4835L123.915 66.708L121.536 58.3377L134.323 47.431C124.212 44.641 113.506 49.4602 110.235 57.8304C108.748 61.3814 109.046 65.4397 110.83 68.9907L99.8267 78.3756C102.206 82.1802 105.774 85.2239 110.235 87.5067L121.536 77.8683C131.35 81.1656 142.353 77.1073 146.219 68.7371C148.003 65.1861 148.003 61.1278 146.814 57.5768Z" fill="white"/>
<path d="M170.604 83.1951C155.438 83.1951 142.948 93.8481 142.948 106.784C142.948 119.72 155.438 130.373 170.604 130.373C185.771 130.373 198.261 119.72 198.261 106.784C198.559 93.8481 186.366 83.4487 171.199 83.1951C170.902 83.1951 170.902 83.1951 170.604 83.1951Z" fill="#96527A"/>
<path d="M183.987 92.8333L191.421 99.1743L165.846 120.988L158.412 114.9L151.572 108.813L158.709 102.725L165.846 108.559L183.987 92.8333Z" fill="white"/>
</svg>
