<svg width="120" height="120" viewBox="0 0 267 270" fill="none" xmlns="http://www.w3.org/2000/svg">
<g filter="url(#filter0_d_339_69)">
<path d="M39.52 244.88H53.48V249.28H39.52V244.88ZM39.96 260H34.76V232H55.2V236.36H39.96V260ZM68.7628 260.28C66.5761 260.28 64.6295 259.813 62.9228 258.88C61.2161 257.92 59.8695 256.613 58.8828 254.96C57.8961 253.307 57.4028 251.427 57.4028 249.32C57.4028 247.187 57.8961 245.307 58.8828 243.68C59.8695 242.027 61.2161 240.733 62.9228 239.8C64.6295 238.867 66.5761 238.4 68.7628 238.4C70.9761 238.4 72.9361 238.867 74.6428 239.8C76.3761 240.733 77.7228 242.013 78.6828 243.64C79.6695 245.267 80.1628 247.16 80.1628 249.32C80.1628 251.427 79.6695 253.307 78.6828 254.96C77.7228 256.613 76.3761 257.92 74.6428 258.88C72.9361 259.813 70.9761 260.28 68.7628 260.28ZM68.7628 256C69.9895 256 71.0828 255.733 72.0428 255.2C73.0028 254.667 73.7495 253.893 74.2828 252.88C74.8428 251.867 75.1228 250.68 75.1228 249.32C75.1228 247.933 74.8428 246.747 74.2828 245.76C73.7495 244.747 73.0028 243.973 72.0428 243.44C71.0828 242.907 70.0028 242.64 68.8028 242.64C67.5761 242.64 66.4828 242.907 65.5228 243.44C64.5895 243.973 63.8428 244.747 63.2828 245.76C62.7228 246.747 62.4428 247.933 62.4428 249.32C62.4428 250.68 62.7228 251.867 63.2828 252.88C63.8428 253.893 64.5895 254.667 65.5228 255.2C66.4828 255.733 67.5628 256 68.7628 256ZM84.9441 260V238.64H89.7041V244.52L89.1441 242.8C89.7841 241.36 90.7841 240.267 92.1441 239.52C93.5307 238.773 95.2507 238.4 97.3041 238.4V243.16C97.0907 243.107 96.8907 243.08 96.7041 243.08C96.5174 243.053 96.3307 243.04 96.1441 243.04C94.2507 243.04 92.7441 243.6 91.6241 244.72C90.5041 245.813 89.9441 247.453 89.9441 249.64V260H84.9441ZM128.506 238.4C130.212 238.4 131.719 238.733 133.026 239.4C134.359 240.067 135.399 241.093 136.146 242.48C136.892 243.84 137.266 245.6 137.266 247.76V260H132.266V248.4C132.266 246.507 131.852 245.093 131.026 244.16C130.199 243.227 129.012 242.76 127.466 242.76C126.372 242.76 125.399 243 124.546 243.48C123.719 243.96 123.066 244.667 122.586 245.6C122.132 246.533 121.906 247.72 121.906 249.16V260H116.906V248.4C116.906 246.507 116.492 245.093 115.666 244.16C114.839 243.227 113.652 242.76 112.106 242.76C111.012 242.76 110.039 243 109.186 243.48C108.359 243.96 107.706 244.667 107.226 245.6C106.772 246.533 106.546 247.72 106.546 249.16V260H101.546V238.64H106.306V244.32L105.466 242.64C106.186 241.253 107.226 240.2 108.586 239.48C109.972 238.76 111.546 238.4 113.306 238.4C115.306 238.4 117.039 238.893 118.506 239.88C119.999 240.867 120.986 242.36 121.466 244.36L119.506 243.68C120.199 242.08 121.346 240.8 122.946 239.84C124.546 238.88 126.399 238.4 128.506 238.4ZM156.815 260V255.68L156.535 254.76V247.2C156.535 245.733 156.095 244.6 155.215 243.8C154.335 242.973 153.002 242.56 151.215 242.56C150.015 242.56 148.828 242.747 147.655 243.12C146.508 243.493 145.535 244.013 144.735 244.68L142.775 241.04C143.922 240.16 145.282 239.507 146.855 239.08C148.455 238.627 150.108 238.4 151.815 238.4C154.908 238.4 157.295 239.147 158.975 240.64C160.682 242.107 161.535 244.387 161.535 247.48V260H156.815ZM150.095 260.28C148.495 260.28 147.095 260.013 145.895 259.48C144.695 258.92 143.762 258.16 143.095 257.2C142.455 256.213 142.135 255.107 142.135 253.88C142.135 252.68 142.415 251.6 142.975 250.64C143.562 249.68 144.508 248.92 145.815 248.36C147.122 247.8 148.855 247.52 151.015 247.52H157.215V250.84H151.375C149.668 250.84 148.522 251.12 147.935 251.68C147.348 252.213 147.055 252.88 147.055 253.68C147.055 254.587 147.415 255.307 148.135 255.84C148.855 256.373 149.855 256.64 151.135 256.64C152.362 256.64 153.455 256.36 154.415 255.8C155.402 255.24 156.108 254.413 156.535 253.32L157.375 256.32C156.895 257.573 156.028 258.547 154.775 259.24C153.548 259.933 151.988 260.28 150.095 260.28ZM175.992 260.28C173.645 260.28 171.832 259.68 170.552 258.48C169.272 257.253 168.632 255.453 168.632 253.08V233.92H173.632V252.96C173.632 253.973 173.885 254.76 174.392 255.32C174.925 255.88 175.659 256.16 176.592 256.16C177.712 256.16 178.645 255.867 179.392 255.28L180.792 258.84C180.205 259.32 179.485 259.68 178.632 259.92C177.779 260.16 176.899 260.28 175.992 260.28ZM165.112 242.8V238.8H179.352V242.8H165.112ZM184.905 260V238.64H189.905V260H184.905ZM187.425 235.12C186.492 235.12 185.718 234.827 185.105 234.24C184.518 233.653 184.225 232.947 184.225 232.12C184.225 231.267 184.518 230.56 185.105 230C185.718 229.413 186.492 229.12 187.425 229.12C188.358 229.12 189.118 229.4 189.705 229.96C190.318 230.493 190.625 231.173 190.625 232C190.625 232.88 190.332 233.627 189.745 234.24C189.158 234.827 188.385 235.12 187.425 235.12ZM206.068 260.28C203.881 260.28 201.934 259.813 200.228 258.88C198.521 257.92 197.174 256.613 196.188 254.96C195.201 253.307 194.708 251.427 194.708 249.32C194.708 247.187 195.201 245.307 196.188 243.68C197.174 242.027 198.521 240.733 200.228 239.8C201.934 238.867 203.881 238.4 206.068 238.4C208.281 238.4 210.241 238.867 211.948 239.8C213.681 240.733 215.028 242.013 215.988 243.64C216.974 245.267 217.468 247.16 217.468 249.32C217.468 251.427 216.974 253.307 215.988 254.96C215.028 256.613 213.681 257.92 211.948 258.88C210.241 259.813 208.281 260.28 206.068 260.28ZM206.068 256C207.294 256 208.388 255.733 209.348 255.2C210.308 254.667 211.054 253.893 211.588 252.88C212.148 251.867 212.428 250.68 212.428 249.32C212.428 247.933 212.148 246.747 211.588 245.76C211.054 244.747 210.308 243.973 209.348 243.44C208.388 242.907 207.308 242.64 206.108 242.64C204.881 242.64 203.788 242.907 202.828 243.44C201.894 243.973 201.148 244.747 200.588 245.76C200.028 246.747 199.748 247.933 199.748 249.32C199.748 250.68 200.028 251.867 200.588 252.88C201.148 253.893 201.894 254.667 202.828 255.2C203.788 255.733 204.868 256 206.068 256ZM234.369 238.4C236.075 238.4 237.595 238.733 238.929 239.4C240.289 240.067 241.355 241.093 242.129 242.48C242.902 243.84 243.289 245.6 243.289 247.76V260H238.289V248.4C238.289 246.507 237.835 245.093 236.929 244.16C236.049 243.227 234.809 242.76 233.209 242.76C232.035 242.76 230.995 243 230.089 243.48C229.182 243.96 228.475 244.68 227.969 245.64C227.489 246.573 227.249 247.76 227.249 249.2V260H222.249V238.64H227.009V244.4L226.169 242.64C226.915 241.28 227.995 240.24 229.409 239.52C230.849 238.773 232.502 238.4 234.369 238.4Z" fill="white"/>
<path d="M21.3621 130.466C26.2487 130.168 32.4885 129.271 35.9693 126.753C42.0826 131.395 51.4557 132.652 59.8186 132.652C63.653 132.652 67.2744 132.387 70.2701 132.063L69.9448 126.482C67.0134 126.79 63.5149 127.036 59.8186 127.036C51.4562 127.036 42.0826 125.779 35.9693 121.137C32.4758 123.664 26.2027 124.558 21.308 124.853L21.3621 130.466Z" fill="#CD6889"/>
<path d="M249.187 30.1892H48.3184V39.7907H249.187V30.1892Z" fill="#CD6889"/>
<path d="M256.908 143.181H69.2559V149.689H256.908V143.181Z" fill="#CD6889"/>
<path d="M48.3184 98.5863C46.9217 98.5863 45.7891 97.7204 45.7891 96.6527V29.8057C45.7891 28.7379 46.9217 27.8721 48.3184 27.8721C49.715 27.8721 50.8477 28.7379 50.8477 29.8057V96.6527C50.8477 97.7204 49.715 98.5863 48.3184 98.5863Z" fill="#96527A"/>
<path d="M249.187 136.154C247.79 136.154 246.658 135.289 246.658 134.221V29.8057C246.658 28.7379 247.79 27.8721 249.187 27.8721C250.584 27.8721 251.716 28.7379 251.716 29.8057V134.221C251.716 135.289 250.584 136.154 249.187 136.154Z" fill="#96527A"/>
<path d="M82.949 174.257C80.8011 165.837 72.0032 159.451 61.233 158.038C68.402 154.311 73.1212 148.026 73.1212 140.913V126.23C73.1212 125.163 71.9885 124.297 70.5919 124.297C69.1952 124.297 68.0626 125.163 68.0626 126.23V140.913C68.0626 150.193 58.1862 157.743 46.0466 157.743C33.9069 157.743 24.0311 150.193 24.0311 140.913V124.656C24.0311 123.589 22.8984 122.723 21.5018 122.723C20.1051 122.723 18.9725 123.589 18.9725 124.656V140.913C18.9725 148.026 23.6916 154.311 30.8607 158.038C20.0904 159.451 11.2925 165.837 9.14462 174.257L6.8981 183.064C6.75342 183.631 6.94818 184.218 7.42875 184.664C7.90931 185.11 8.6251 185.368 9.38086 185.368H82.7133C83.469 185.368 84.1848 185.11 84.6654 184.664C85.1459 184.218 85.3402 183.631 85.196 183.064L82.949 174.257Z" fill="white"/>
<path d="M253.572 12.6318H43.9331C40.3071 12.6318 37.3569 14.8872 37.3569 17.6592V26.7119C37.3569 29.4839 40.3071 31.7392 43.9331 31.7392H253.572C257.198 31.7392 260.149 29.4839 260.149 26.7119V17.6592C260.149 14.8872 257.198 12.6318 253.572 12.6318ZM255.09 26.7119C255.09 27.3515 254.409 27.872 253.572 27.872H43.9331C43.0964 27.872 42.4155 27.3515 42.4155 26.7119V17.6592C42.4155 17.0195 43.0964 16.499 43.9331 16.499H253.572C254.409 16.499 255.09 17.0195 255.09 17.6592V26.7119Z" fill="white"/>
<path d="M104.908 111.75C105.674 112.041 106.495 112.184 107.311 112.184C108.458 112.184 109.595 111.901 110.553 111.346L120.419 105.637H183.404C189.261 105.637 194.027 101.994 194.027 97.5163V59.9628C194.027 55.4846 189.261 51.8417 183.404 51.8417H108.604C102.746 51.8417 97.9811 55.4846 97.9811 59.9628V97.5163C97.9811 100.006 99.4309 102.292 101.922 103.824V108.066C101.922 109.638 103.066 111.05 104.908 111.75Z" fill="white"/>
<path d="M148.753 164.107C141.9 164.107 136.326 168.368 136.326 173.607C136.326 178.845 141.901 183.106 148.753 183.106C155.605 183.106 161.179 178.845 161.179 173.607C161.18 168.368 155.605 164.107 148.753 164.107ZM148.753 179.24C144.69 179.24 141.385 176.713 141.385 173.607C141.385 170.501 144.69 167.974 148.753 167.974C152.815 167.974 156.121 170.501 156.121 173.607C156.121 176.713 152.816 179.24 148.753 179.24Z" fill="white"/>
<path d="M253.572 132.287H78.2294C76.8327 132.287 75.7001 133.153 75.7001 134.221C75.7001 135.289 76.8327 136.154 78.2294 136.154H253.572C254.409 136.154 255.09 136.675 255.09 137.315V146.368C255.09 147.007 254.409 147.528 253.572 147.528H76.1179C74.7212 147.528 73.5886 148.394 73.5886 149.461C73.5886 150.529 74.7212 151.395 76.1179 151.395H146.223V158.723C146.223 159.791 147.356 160.657 148.753 160.657C150.15 160.657 151.282 159.791 151.282 158.723V151.395H253.572C257.198 151.395 260.149 149.14 260.149 146.368V137.315C260.149 134.543 257.198 132.287 253.572 132.287Z" fill="white"/>
<path d="M173.923 73.3804H118.084C116.688 73.3804 115.555 72.5145 115.555 71.4468C115.555 70.379 116.688 69.5132 118.084 69.5132H173.923C175.32 69.5132 176.453 70.379 176.453 71.4468C176.453 72.5145 175.32 73.3804 173.923 73.3804Z" fill="#F99F72"/>
<path d="M148.634 87.9667H118.084C116.688 87.9667 115.555 87.1008 115.555 86.0331C115.555 84.9654 116.688 84.0995 118.084 84.0995H148.634C150.031 84.0995 151.163 84.9654 151.163 86.0331C151.163 87.1008 150.031 87.9667 148.634 87.9667Z" fill="#F99F72"/>
<path d="M173.923 87.9667H163.931C162.533 87.9667 161.401 87.1008 161.401 86.0331C161.401 84.9654 162.533 84.0995 163.931 84.0995H173.923C175.32 84.0995 176.453 84.9654 176.453 86.0331C176.453 87.1008 175.32 87.9667 173.923 87.9667Z" fill="#F99F72"/>
<path d="M76.9829 102.398C72.285 97.1457 65.0729 94.0794 57.1957 93.9854C43.7656 93.8242 37.541 98.3128 35.075 100.89C30.2339 99.2819 18.6249 96.3618 12.8333 102.906C6.14132 110.469 12.2647 124.778 12.5288 125.383C12.8581 126.139 13.7611 126.663 14.8021 126.703C16.5883 126.771 30.3583 127.148 36.2425 122.891C42.3553 127.534 51.7289 128.79 60.0917 128.79C69.5574 128.79 77.7265 127.179 78.3912 127.044C79.1854 126.883 79.8283 126.437 80.1141 125.848C84.0467 117.753 82.8761 108.986 76.9829 102.398Z" fill="#F99F72"/>
</g>
<defs>
<filter id="filter0_d_339_69" x="0" y="0" width="267" height="268.28" filterUnits="userSpaceOnUse" color-interpolation-filters="sRGB">
<feFlood flood-opacity="0" result="BackgroundImageFix"/>
<feColorMatrix in="SourceAlpha" type="matrix" values="0 0 0 0 0 0 0 0 0 0 0 0 0 0 0 0 0 0 127 0" result="hardAlpha"/>
<feOffset dy="4"/>
<feGaussianBlur stdDeviation="2"/>
<feComposite in2="hardAlpha" operator="out"/>
<feColorMatrix type="matrix" values="0 0 0 0 0 0 0 0 0 0 0 0 0 0 0 0 0 0 0.25 0"/>
<feBlend mode="normal" in2="BackgroundImageFix" result="effect1_dropShadow_339_69"/>
<feBlend mode="normal" in="SourceGraphic" in2="effect1_dropShadow_339_69" result="shape"/>
</filter>
</defs>
</svg>
