<svg width="274" height="255" viewBox="0 0 274 255" fill="none" xmlns="http://www.w3.org/2000/svg">
<path d="M18.3676 168.024C23.5372 167.64 30.1384 166.485 33.8208 163.242C40.2882 169.221 50.2041 170.84 59.0513 170.839C63.1078 170.839 66.9389 170.498 70.1081 170.082L69.764 162.894C66.6628 163.29 62.9617 163.606 59.0513 163.606C50.2046 163.606 40.2882 161.988 33.8208 156.009C30.125 159.265 23.4885 160.416 18.3104 160.796L18.3676 168.024Z" fill="#DEFFFE"/>
<path d="M259.387 38.8801H46.885V51.2456H259.387V38.8801Z" fill="#DEFFFE"/>
<path d="M267.555 184.4H69.0352V192.781H267.555V184.4Z" fill="#DEFFFE"/>
<path d="M46.885 126.967C45.4074 126.967 44.2092 125.852 44.2092 124.477V38.386C44.2092 37.0109 45.4074 35.8958 46.885 35.8958C48.3626 35.8958 49.5608 37.0109 49.5608 38.386V124.477C49.5608 125.852 48.3626 126.967 46.885 126.967Z" fill="#04BFBF"/>
<path d="M259.387 175.35C257.909 175.35 256.711 174.235 256.711 172.86V38.386C256.711 37.0109 257.909 35.8958 259.387 35.8958C260.865 35.8958 262.063 37.0109 262.063 38.386V172.86C262.063 174.235 260.865 175.35 259.387 175.35Z" fill="#04BFBF"/>
<path d="M83.5213 224.422C81.249 213.578 71.9416 205.353 60.5476 203.534C68.1318 198.734 73.1243 190.639 73.1243 181.478V162.57C73.1243 161.194 71.9261 160.079 70.4485 160.079C68.9709 160.079 67.7727 161.194 67.7727 162.57V181.478C67.7727 193.431 57.3243 203.154 44.4817 203.154C31.639 203.154 21.1911 193.431 21.1911 181.478V160.542C21.1911 159.167 19.9929 158.052 18.5153 158.052C17.0378 158.052 15.8396 159.167 15.8396 160.542V181.478C15.8396 190.639 20.832 198.734 28.4163 203.534C17.0222 205.354 7.71481 213.578 5.44254 224.422L3.06591 235.764C2.91285 236.495 3.11889 237.25 3.62729 237.824C4.13569 238.399 4.89293 238.731 5.69246 238.731H83.2719C84.0714 238.731 84.8287 238.399 85.3371 237.824C85.8455 237.25 86.051 236.495 85.8985 235.764L83.5213 224.422Z" fill="#004358"/>
<path d="M264.026 16.2683H42.2457C38.4097 16.2683 35.2887 19.1729 35.2887 22.7429V34.4017C35.2887 37.9717 38.4097 40.8763 42.2457 40.8763H264.026C267.862 40.8763 270.983 37.9717 270.983 34.4017V22.7429C270.983 19.1729 267.862 16.2683 264.026 16.2683ZM265.632 34.4017C265.632 35.2255 264.911 35.8958 264.026 35.8958H42.2457C41.3606 35.8958 40.6403 35.2255 40.6403 34.4017V22.7429C40.6403 21.9192 41.3606 21.2488 42.2457 21.2488H264.026C264.911 21.2488 265.632 21.9192 265.632 22.7429V34.4017Z" fill="#004358"/>
<path d="M106.752 143.921C107.562 144.295 108.431 144.48 109.294 144.48C110.508 144.48 111.71 144.116 112.724 143.401L123.162 136.048H189.794C195.991 136.048 201.032 131.357 201.032 125.589V77.2249C201.032 71.4575 195.991 66.7659 189.794 66.7659H110.662C104.465 66.7659 99.424 71.4575 99.424 77.2249V125.589C99.424 128.796 100.958 131.74 103.593 133.713V139.175C103.593 141.201 104.803 143.019 106.752 143.921Z" fill="#004358"/>
<path d="M153.136 211.35C145.887 211.35 139.99 216.838 139.99 223.584C139.99 230.33 145.887 235.819 153.136 235.819C160.385 235.819 166.282 230.33 166.282 223.584C166.283 216.838 160.385 211.35 153.136 211.35ZM153.136 230.839C148.838 230.839 145.341 227.585 145.341 223.585C145.341 219.585 148.838 216.331 153.136 216.331C157.434 216.331 160.931 219.585 160.931 223.585C160.931 227.585 157.434 230.839 153.136 230.839Z" fill="#004358"/>
<path d="M264.026 170.37H78.5283C77.0507 170.37 75.8525 171.485 75.8525 172.86C75.8525 174.235 77.0507 175.35 78.5283 175.35H264.026C264.911 175.35 265.632 176.021 265.632 176.844V188.504C265.632 189.328 264.911 189.998 264.026 189.998H76.2946C74.817 189.998 73.6188 191.113 73.6188 192.488C73.6188 193.863 74.817 194.978 76.2946 194.978H150.46V204.416C150.46 205.791 151.658 206.906 153.136 206.906C154.614 206.906 155.812 205.791 155.812 204.416V194.978H264.026C267.862 194.978 270.983 192.074 270.983 188.504V176.844C270.983 173.274 267.862 170.37 264.026 170.37Z" fill="#004358"/>
<path d="M179.764 94.5049H120.692C119.214 94.5049 118.016 93.3898 118.016 92.0146C118.016 90.6395 119.214 89.5244 120.692 89.5244H179.764C181.242 89.5244 182.44 90.6395 182.44 92.0146C182.44 93.3898 181.242 94.5049 179.764 94.5049Z" fill="#F99F72"/>
<path d="M153.01 113.29H120.692C119.214 113.29 118.016 112.175 118.016 110.8C118.016 109.425 119.214 108.31 120.692 108.31H153.01C154.488 108.31 155.686 109.425 155.686 110.8C155.686 112.175 154.488 113.29 153.01 113.29Z" fill="#F99F72"/>
<path d="M179.764 113.29H169.193C167.715 113.29 166.517 112.175 166.517 110.8C166.517 109.425 167.715 108.31 169.193 108.31H179.764C181.242 108.31 182.44 109.425 182.44 110.8C182.44 112.175 181.242 113.29 179.764 113.29Z" fill="#F99F72"/>
<path d="M77.2096 131.876C72.2396 125.112 64.6099 121.163 56.2765 121.042C42.0686 120.834 35.4835 126.615 32.8746 129.934C27.7532 127.863 15.4719 124.102 9.34488 132.53C2.2653 142.271 8.74337 160.698 9.02272 161.478C9.3711 162.451 10.3264 163.126 11.4277 163.178C13.3173 163.266 27.8848 163.751 34.1098 158.269C40.5766 164.248 50.493 165.867 59.3403 165.866C69.3541 165.866 77.9963 163.791 78.6995 163.617C79.5397 163.41 80.2199 162.836 80.5223 162.077C84.6826 151.651 83.4442 140.361 77.2096 131.876Z" fill="#F99F72"/>
</svg>
